<svg id="icons" enable-background="new 0 0 64 64" height="64" viewBox="0 0 64 64" width="64" xmlns="http://www.w3.org/2000/svg"><g><path d="m13.008 64c.004 0 .006-.002.01-.002h37.98c.004 0 .006.002.01.002 2.757 0 5-2.243 5-5 0-.027-.014-.051-.016-.077v-3.768c.002-.053.016-.102.016-.154 0-.027-.014-.051-.016-.077v-45.77c.002-.052.016-.101.016-.154 0-.027-.014-.051-.016-.078v-3.768c.002-.052.016-.101.016-.154 0-2.757-2.243-5-5-5h-38c-2.704 0-4.9 2.161-4.984 4.845-.009.052-.032.1-.032.155v54c0 .055.022.103.031.155.084 2.684 2.281 4.845 4.985 4.845zm38.007-2.001c-.003 0-.005-.001-.007-.001h-38c-.002 0-.004.001-.007.001-1.651-.003-2.993-1.347-2.993-2.999 0-.011-.006-.02-.006-.029.839.637 1.873 1.03 3.006 1.03.004 0 .006-.002.01-.002h37.98c.004 0 .006.002.01.002 1.123 0 2.148-.386 2.984-1.013v.012c0 .019.01.033.011.052-.028 1.628-1.356 2.944-2.988 2.947zm-38.007-50.001c-.002 0-.004.001-.007.001-1.651-.004-2.993-1.347-2.993-3 0-.011-.006-.02-.006-.031.839.639 1.873 1.032 3.006 1.032.004 0 .006-.002.01-.002h37.98c.004 0 .006.002.01.002 1.123 0 2.148-.385 2.984-1.013v.167c-.082 1.579-1.38 2.841-2.978 2.845-.003 0-.005-.001-.007-.001zm37.99 2c.004 0 .006.002.01.002 1.123 0 2.148-.385 2.984-1.013v42.168c-.082 1.579-1.38 2.842-2.978 2.845-.003 0-.005-.001-.007-.001h-18.003v-44.001zm-37.99-11.998h38c1.637 0 2.967 1.318 2.995 2.948-.001.018-.011.033-.011.052v.155c-.082 1.579-1.38 2.841-2.977 2.845-.003 0-.005-.001-.007-.001h-38c-.002-.001-.004.001-.007.001-1.651-.004-2.993-1.347-2.993-3 0-1.654 1.346-3 3-3zm-3.016 10.961c.841.643 1.879 1.039 3.016 1.039.004 0 .006-.002.01-.002h17.986v44.001h-17.996c-.002 0-.004.001-.007.001-1.651-.003-2.993-1.347-2.993-2.999 0-.027-.014-.051-.016-.077v-30.917c0-2.761 2.246-5.008 5.006-5.008 2.452 0 4.489 1.775 4.917 4.105-2.789.515-4.909 2.96-4.909 5.896v2c0 .552.447 1 1 1h10c.553 0 1-.448 1-1v-2c0-2.991-2.202-5.47-5.068-5.92-.456-3.427-3.391-6.081-6.939-6.081-1.961 0-3.733.812-5.006 2.114v-6.152zm15.014 17.039h-8v-1c0-2.198 1.782-3.985 3.978-3.998.008 0 .015.004.022.004s.015-.004.022-.004c2.195.012 3.978 1.8 3.978 3.998z"/><path d="m36.006 33v7.003c-.553 0-1 .447-1 1s.447 1 1 1h1c.553 0 1-.447 1-1v-9.003c0-.552-.447-1-1-1h-1c-.553 0-1 .448-1 1s.447 1 1 1z"/><path d="m18.006 33.001c-.553 0-1 .447-1 1v22c0 .553.447 1 1 1s1-.447 1-1v-22c0-.553-.447-1-1-1z"/><path d="m21.006 33.001c-.553 0-1 .447-1 1v22c0 .553.447 1 1 1s1-.447 1-1v-22c0-.553-.447-1-1-1z"/><path d="m24.006 33.001c-.553 0-1 .447-1 1v22c0 .553.447 1 1 1s1-.447 1-1v-22c0-.553-.447-1-1-1z"/></g></svg>