<?xml version="1.0" encoding="utf-8"?>
<!-- Generator: Adobe Illustrator 16.0.0, SVG Export Plug-In . SVG Version: 6.00 Build 0)  -->
<!DOCTYPE svg PUBLIC "-//W3C//DTD SVG 1.1//EN" "http://www.w3.org/Graphics/SVG/1.1/DTD/svg11.dtd">
<svg version="1.1" id="Layer_1" xmlns="http://www.w3.org/2000/svg" xmlns:xlink="http://www.w3.org/1999/xlink" x="0px" y="0px"
	 width="800px" height="800px" viewBox="-322.096 -323.006 800 800" enable-background="new -322.096 -323.006 800 800"
	 xml:space="preserve">
<g>
	<g>
		<g>
			<path fill="#303A83" d="M42.072-317.958c5.242-0.373,10.489-0.945,15.735-1.291c16.024-0.94,20.353-1.147,38.384-0.363
				c25.467,2.19,51.011,5.019,75.848,11.328c87.905,21.115,167.639,73.678,222.146,145.687
				c40.251,52.784,66.899,115.821,76.505,181.502c2.83,18.044,3.773,36.308,4.53,54.533c-0.116,42.978-6.211,86.085-19.695,126.973
				c-24.435,75.395-72.282,142.883-135.084,191.223c-61.711,47.871-137.907,76.82-215.91,81.756
				c-5.499,0.213-10.928,1.11-16.417,1.463c-5.055,0.363-10.049-1.473-15.08-0.534c-6.235,1.14-12.441-0.649-18.677-0.727
				c-81.696-4.461-161.605-35.322-225.244-86.697c-29.847-23.973-56.208-52.263-78.017-83.702
				c-33.353-48.008-55.895-103.507-65.259-161.225c-2.245-13.093-3.415-26.348-4.727-39.542c0.908-12.342,0.278-24.725,0.475-37.087
				c0.232-7.033-0.686-14.084,0.363-21.08c4.904-59.79,23.646-118.402,54.472-169.896c38.696-65.051,96.417-118.625,164.228-152.336
				C-55.274-300.007-7.016-313.607,42.072-317.958z M52.531-292.666c-1.206,0.526-1.882,1.455-2.003,2.818
				c0.596,4.316,9.097,3.284,8.002-1.208C57.732-293.523,54.519-293.439,52.531-292.666z M39.394-291.675
				c-1.242,0.439-2.292,1.493-2.225,2.886c0.454,4.276,8.783,3.414,7.976-0.965C44.686-292.278,41.325-292.391,39.394-291.675z
				 M76.565-285.134c0.011,13.991-0.125,27.972-0.398,41.952c2.391,0.02,4.763,0.048,7.169,0.059
				c-0.076-6.497-0.025-13.005,0.156-19.502c4.849,6.418,9.55,12.945,13.99,19.64c2.81,0.046,5.615,0.058,8.436,0.035
				c-5.746-8.011-11.428-16.065-17.365-23.933c4.611-6.171,9.52-12.117,14.409-18.074c-1.666,0.184-3.522-0.326-5.046,0.418
				c-4.889,5.854-9.374,12.042-14.389,17.794c-0.045-6.112-0.01-12.236,0.212-18.341C81.338-285.099,78.957-285.108,76.565-285.134z
				 M60.785-284.375c0.777,8.71,1.427,17.419,2.164,26.124c0.292,3.366,0.268,7.134-2.003,9.887
				c-3.364,4.129-9.519,4.898-14.373,3.454c-3.996-1.291-6.185-5.463-6.372-9.453c-0.767-9.35-1.583-18.685-2.19-28.045
				c-2.376,0.177-4.762,0.348-7.138,0.527c0.908,9.428,1.493,18.881,2.376,28.306c0.313,5.521,4.076,10.843,9.515,12.284
				c5.5,1.291,11.448,0.65,16.588-1.689c4.809-2.251,7.347-7.792,6.897-12.932c-0.596-9.536-1.615-19.045-2.19-28.581
				C63.241-284.458,61.602-284.395,60.785-284.375z M20.944-281.009c-2.266,6.882-4.228,13.832-6.433,20.724
				c-4.395-5.576-8.506-11.374-12.533-17.217c-2.33,0.526-4.948,0.324-7.073,1.501c4.056,7.588,10.388,13.843,14.722,21.282
				c1.433,5.916,2.063,12.001,3.285,17.96c2.295-0.466,4.606-0.91,6.911-1.338c-0.979-5.997-2.321-11.941-2.996-17.971
				c1.967-8.543,5.121-16.779,7.315-25.276C23.345-281.267,21.73-281.09,20.944-281.009z M117.829-281.025
				c-5.348,2.309-8.228,9.325-5.418,14.576c3.052,5.591,9.641,7.542,13.813,12.04c3.193,3.793,0.601,10.335-4.263,11.094
				c-5.056,1.079-9.47-2.188-12.72-5.649c-0.686,1.575-1.402,3.156-2.073,4.729c5.323,3.842,12.255,6.104,18.753,4.192
				c6.775-2.07,10.63-10.558,7.427-16.938c-3.098-5.789-10.111-7.591-14.178-12.458c-2.467-3.35-0.045-8.61,4.021-9.193
				c4.354-0.92,8.012,2.13,11.463,4.258c0.116-1.533,2.351-4.016,0.056-4.916C129.65-282.03,123.293-283.336,117.829-281.025z
				 M-25.502-279.838c-2.19,0.481-4.309,2.892-2.654,5.056c2.376,2.293,7.945,0.314,7.335-3.32
				C-21.4-280.1-23.811-280.425-25.502-279.838z M138.877-237.461c7.044,1.492,14.026,3.34,21.095,4.714
				c0.146-0.827,0.443-2.488,0.579-3.32c-4.701-0.907-9.354-2.05-14.024-3.071c1.12-5.379,2.482-10.713,3.587-16.088
				c4.656,0.79,9.172,2.211,13.849,2.959c0.328-0.678,0.994-2.029,1.327-2.69c-4.808-1.039-9.602-2.143-14.394-3.26
				c1.146-5.177,2.375-10.345,3.557-15.518c4.722,1,9.439,2.05,14.085,3.351c0.152-0.799,0.459-2.42,0.616-3.227
				c-6.922-1.419-13.718-3.365-20.665-4.611C144.957-264.719,142.213-251.014,138.877-237.461z M-39.648-275.174
				c-1.131,0.612-1.792,1.579-2.003,2.884c0.686,4.354,8.062,2.738,8.097-1.174C-33.842-276.469-37.635-276.469-39.648-275.174z
				 M-17.379-272.631c2.84,8.975,5.847,17.917,8.546,26.926c1.423,4.109,0.338,9.148-3.35,11.687
				c-3.976,2.758-9.681,4.26-14.045,1.55c-2.962-1.847-4.178-5.286-5.142-8.452c-2.507-8.267-5.347-16.429-7.733-24.725
				c-2.25,0.66-4.511,1.328-6.771,1.979c2.785,9.055,5.711,18.069,8.597,27.087c1.6,5.447,6.665,9.93,12.497,9.871
				c5.57-0.113,11.149-2.069,15.513-5.543c4.041-3.32,5.162-9.158,3.602-14.003c-2.775-9.145-5.882-18.193-8.612-27.356
				C-15.049-273.363-16.602-272.872-17.379-272.631z M181.736-270.332c-4.51,13.199-9.742,26.155-14.367,39.323
				c2.138,0.782,4.252,1.571,6.376,2.413c2.573-6.252,4.697-12.665,7.164-18.955c5.757,2.166,11.538,4.251,17.284,6.449
				c-2.29,6.324-4.576,12.655-7.058,18.906c2.266,0.792,4.546,1.586,6.861,2.284c4.565-13.109,9.438-26.136,14.484-39.078
				c-2.22-0.897-4.425-1.76-6.639-2.622c-2.125,5.808-4.35,11.585-6.388,17.419c-5.928-1.7-11.589-4.203-17.421-6.171
				c1.958-6.01,4.485-11.79,6.352-17.819C186.156-268.912,183.95-269.635,181.736-270.332z M226.193-260.255
				c-2.617,3.635,5.016,7.693,6.968,3.852C234.876-259.94,228.434-263.187,226.193-260.255z M-81.674-248.334
				c5.933,12.617,11.705,25.32,17.359,38.075c5.549-2.632,11.498-4.611,16.634-8.044c6.185-4.409,5.197-14.609-1.08-18.45
				c-2.508-1.57-5.56-1.132-8.345-1.011c1.599-1.608,3.471-3.176,4.102-5.473c1.68-6.143-3.824-13.61-10.499-12.458
				C-69.999-254.576-75.64-250.776-81.674-248.334z M223.611-253.769c-5.529,12.863-11.649,25.455-17.295,38.273
				c2.164,0.885,4.329,1.803,6.483,2.713c5.665-12.773,11.583-25.438,17.359-38.148
				C227.964-251.871,225.784-252.814,223.611-253.769z M242.252-244.853c-6.539,12.327-13.587,24.377-20.413,36.55
				c2.124,1.167,4.259,2.319,6.417,3.414c2.952-5.473,5.57-11.223,9.299-16.208c0.974,7.648,1.947,15.31,2.492,22.991
				c2.437,1.419,4.913,2.783,7.426,4.054c-1.18-8.069-2.219-16.144-3.364-24.223c3.623,0.721,7.644,2.001,11.125,0.045
				c5.746-3.191,7.284-11.818,2.749-16.66C253.68-239.473,247.574-241.694,242.252-244.853z M116.548-237.265
				c-1.327,3.118-2.664,6.231-3.647,9.474c4.939,0.01,6.06-5.809,8.616-8.987C119.853-236.95,118.198-237.109,116.548-237.265z
				 M-123.785-222.22c3.168,14.326,6.922,28.556,10.121,42.887c0.756-0.466,2.275-1.399,3.027-1.865
				c-1.292-4.41-2.271-8.904-3.4-13.351c4.333-2.987,8.758-5.843,13.223-8.626c3.587,2.856,7.27,5.592,10.807,8.498
				c2.189-1.373,4.374-2.763,6.574-4.119c-12.012-8.849-23.914-17.847-35.815-26.857
				C-120.759-224.54-122.661-223.796-123.785-222.22z M54.968-221.313c-43.181,3.19-85.61,15.949-123.374,37.111
				c-45.84,25.575-84.722,63.417-111.552,108.519c-24.196,40.503-38.51,86.824-41.41,133.913
				c-2.962,46.006,4.762,92.692,22.718,135.199c18.556,44.205,47.979,83.768,84.884,114.387
				c28.914,24.054,62.383,42.598,98.132,54.294c48.575,15.962,101.255,19.059,151.415,9.236
				c44.497-8.677,86.912-27.729,123.004-55.161c28.399-21.513,52.948-48.113,72.06-78.172
				c22.759-35.666,37.782-76.231,43.701-118.118c6.73-47.21,2.134-96.034-13.603-141.075
				c-12.759-36.646-32.782-70.728-58.513-99.791c-30.78-34.831-69.743-62.407-112.909-79.697
				C147.056-217.807,100.611-224.771,54.968-221.313z M291.185-215.177c-8.557,11.056-17.153,22.085-25.917,32.978
				c5.056,3.69,9.54,8.266,15.12,11.178c6.72,3.237,14.913-2.267,15.6-9.395c0.272-2.887-1.388-5.423-2.669-7.868
				c2.194,0.547,4.45,1.465,6.756,0.907c6.149-1.559,10.015-9.778,5.933-15.123C301.971-207.673,296.078-210.919,291.185-215.177z
				 M-152.406-202.175c-1.806,1.467-3.633,2.935-5.464,4.379c8.516,11.094,17.098,22.143,25.604,33.248
				c5.515-4.276,10.999-8.596,16.599-12.746c-0.676-0.976-1.337-1.957-2.014-2.935c-3.647,2.949-7.391,5.798-11.088,8.684
				C-136.737-181.688-144.576-191.93-152.406-202.175z M-182.682-190.78c0.438,2.841,1.074,6.3-1.549,8.35
				c-1.857,2.122-4.758,1.435-7.159,1.038c-0.591,0.628-1.781,1.883-2.376,2.514c3.779,2.291,8.985,2.422,12.047-1.142
				c3.799-3.292,3.925-8.803,1.811-13.086C-180.831-192.328-181.759-191.559-182.682-190.78z M320.576-191.096
				c-9.272,10.338-19.333,19.956-28.564,30.316c4.929,5.113,10.251,9.852,15.337,14.833c0.757-0.873,1.534-1.745,2.301-2.617
				c-3.622-3.108-7.033-6.458-10.448-9.778c3.845-3.832,7.28-8.09,11.392-11.652c3.87,2.688,6.645,6.632,10.433,9.425
				c0.58-0.463,1.736-1.399,2.302-1.863c-3.526-3.227-7.175-6.354-10.403-9.907c3.158-4.12,7.003-7.709,10.67-11.374
				c3.976,2.665,6.998,6.531,10.545,9.731c0.711-0.815,1.428-1.614,2.163-2.431C330.955-181.198,326.076-186.485,320.576-191.096z
				 M-184.801-166.287c-0.919,8.729,4.984,16.506,11.976,21.033c5.53,3.727,13.163,4.72,19.066,1.281
				c6.361-3.739,10.812-10.058,13.591-16.774c-4.773-5.029-10.09-9.562-14.954-14.507c-1.6,1.686-3.204,3.359-4.829,5.026
				c4.607,4.261,9.127,8.591,13.582,12.99c-1.906,4.797-5.882,9.34-11.376,9.675c-7.668,0.383-13.91-5.37-18.299-11.036
				c-3.718-4.611-4.672-11.654-1.04-16.59c2.735-4.258,7.664-5.992,12.079-7.924c-1.201-1.048-2.387-2.097-3.567-3.146
				C-176.427-182.376-183.863-175.445-184.801-166.287z M312.945-140.794c4.187,5.66,8.99,10.838,13.535,16.217
				c0.615-0.595,1.852-1.792,2.473-2.384c-3.133-3.497-6.206-7.043-9.041-10.782c9.904-7.997,19.338-16.568,29.312-24.47
				c-1.401-1.866-2.829-3.701-4.232-5.556C334.139-158.987,323.564-149.858,312.945-140.794z M-201.843-152.818
				c7.35,5.531,14.514,11.291,21.749,16.975c3.445,2.536,5.893,6.95,4.541,11.281c-1.479,4.563-5.081,9.055-10.044,9.862
				c-3.623,0.547-6.861-1.561-9.526-3.728c-6.896-5.528-13.955-10.853-20.755-16.474c-1.494,1.9-2.982,3.793-4.465,5.694
				c7.739,5.786,15.155,11.977,22.854,17.8c4.308,3.32,10.696,3.91,15.291,0.827c4.4-3.015,7.664-7.578,9.551-12.524
				c1.942-5.181-0.333-11.117-4.576-14.419c-7.441-6.042-15.14-11.758-22.541-17.848
				C-200.456-154.527-201.142-153.671-201.843-152.818z M330.194-120.852c3.345,6.113,7.638,11.773,11.801,17.369
				c0.781-0.29,2.34-0.882,3.122-1.177c-2.855-4.016-5.625-8.09-8.506-12.08c4.425-3.32,9.041-6.384,13.601-9.512
				c2.852,4.002,5.617,8.054,8.376,12.118c0.52-0.537,1.559-1.596,2.063-2.133c-2.518-4.006-5.438-7.729-8.002-11.714
				c4.369-3.036,8.754-6.076,13.153-9.09c2.718,3.942,5.544,7.847,8.062,11.941c0.687-0.429,2.044-1.286,2.724-1.705
				c-4.055-5.946-8.143-11.86-12.278-17.729C352.992-136.592,341.48-128.882,330.194-120.852z M346.952-97.23
				c3.729,6.009,6.247,12.957,11.357,17.986c11.659,10.502,32.918,1.535,34.761-13.635c1.039-9.38-5.585-16.885-9.455-24.796
				C371.29-111.025,359.31-103.797,346.952-97.23z M-233.159-108.02c7.957,8.883,16.008,17.681,23.692,26.799
				c-11.68-1.979-23.354-4.074-34.958-6.497c-1.024,1.689-2.088,3.369-2.876,5.191c10.832,8.951,22.203,17.29,33,26.308
				c0.621-1.012,1.236-2.024,1.846-3.026c-8.466-6.375-16.891-12.873-24.922-19.788c10.994,1.664,21.906,3.877,32.869,5.773
				c0.838-1.571,1.691-3.129,2.538-4.694c-7.88-8.311-15.251-17.109-22.985-25.564c10.442,3.515,20.543,7.929,30.86,11.761
				c1.08-2.05,2.19-4.089,3.284-6.124c-13.117-5.074-26.28-10.058-39.361-15.251C-231.15-111.434-232.154-109.734-233.159-108.02z
				 M409.85-81.107c-2.986,2.942,1.6,9.872,5.137,6.261C416.656-77.851,413.406-83.192,409.85-81.107z M366.826-60.885
				c0.918,2.084,1.846,4.172,2.754,6.262c12.921-5.38,25.493-11.606,38.277-17.312c-0.969-2.142-1.933-4.295-2.9-6.425
				C392.298-72.433,379.595-66.59,366.826-60.885z M393.242-47.776c-5.409,3.118-11.514,4.956-17.245,7.418
				c0.889,2.188,1.786,4.389,2.648,6.613c5.677-2.252,11.171-4.961,16.957-6.882c8.759,0,17.512,1.215,26.27,1.644
				c-0.292-0.827-0.872-2.496-1.165-3.32c-7.173-0.35-14.317-1.039-21.482-1.492c4.511-5.428,9.192-10.724,14.036-15.854
				c-0.884-2.48-1.831-4.936-2.785-7.394C404.508-60.84,399.23-53.973,393.242-47.776z M-228.356-35.521
				c-2.295,1.71-2.713,5.788-0.04,7.347c3.299,1.641,6.493-2.421,5.424-5.494C-223.512-35.964-226.514-36.939-228.356-35.521z
				 M-265.795-33.519c-4.829,7.043-7.725,16.521-4.244,24.739c3.436,7.848,12.27,11.364,20.291,12.201
				c6.161,0.769,12.87-1.458,16.588-6.604c3.835-5.379,5.813-12.302,4.637-18.854c-1.312-1.213-3.27-1.197-4.879-1.797
				c2.165,4.984,2.331,11.117-1.493,15.37c-5.394,6.144-14.767,5.427-21.674,2.516c-6.023-2.256-12.003-7.812-11.004-14.817
				c0.222-4.729,3.603-8.193,6.725-11.364C-262.501-32.599-264.146-33.053-265.795-33.519z M383.339-18.746
				c2.047,6.763,3.723,13.655,6.159,20.287c0.818-0.03,2.447-0.113,3.264-0.148c-1.316-4.788-2.783-9.509-4.161-14.271
				c5.287-1.583,10.559-3.237,15.891-4.625c1.344,4.424,2.423,8.941,3.945,13.31c0.631-0.045,1.893-0.128,2.522-0.173
				c-0.266-4.762-2.688-9.353-3.672-14.075c5.085-1.501,10.156-3.052,15.267-4.457c1.331,4.518,2.749,9.02,3.844,13.61
				c0.758-0.094,2.271-0.27,3.044-0.363c-1.575-7.099-4.037-13.961-5.929-20.976C410.159-26.579,396.773-22.578,383.339-18.746z
				 M415.334,4.64c-4.056,4.641-3.965,11.256-6.922,16.459c-2.725,4.157-9.758,3.552-11.872-0.883
				c-2.517-4.482-0.539-9.556,1.429-13.794c-1.65-0.142-3.311-0.27-4.948-0.398c-2.109,6.262-2.16,13.691,1.805,19.252
				c4.067,5.788,13.365,6.681,18.376,1.642c4.424-4.702,4.061-11.766,7.359-17.087c2.367-3.433,8.098-2.841,9.989,0.789
				c2.262,3.784,0.66,8.287-0.656,12.105c1.49,0.161,2.993,0.335,4.506,0.511c1.302-6.065,1.171-13.108-3.016-18.079
				C427.529,0.427,419.406-0.084,415.334,4.64z M-241.427,14.299c-2.916,1.42-3.285,6.512-0.116,7.858
				c2.87,1.301,5.488-1.838,5.115-4.563C-236.392,15.121-239.132,13.148-241.427,14.299z M-279.427,17.851
				c-1.261,10.011-2.775,19.99-4.096,30.001c0.912,0.093,2.724,0.295,3.622,0.386c0.439-3.819,0.969-7.623,1.413-11.444
				c12.728,1.492,25.417,3.388,38.101,5.216c0.302-2.365,0.601-4.729,0.908-7.089c-12.653-1.524-25.231-3.542-37.874-5.147
				c0.438-3.925,1.004-7.838,1.645-11.735C-276.945,17.97-278.191,17.915-279.427,17.851z M442.461,31.718
				c-3.339,1.911-1.351,9.139,2.866,7.522C448.622,37.315,446.624,30.087,442.461,31.718z M395.562,38.434
				c0.319,2.309,0.51,4.659,1.146,6.931c13.684-1.783,27.391-3.666,41.048-5.66c0.302-2.307-0.303-4.631-0.474-6.927
				C423.365,34.641,409.483,36.69,395.562,38.434z"/>
		</g>
		<path fill="#303A83" d="M-73.88-248.624c3.39-1.185,7.205-3.912,10.827-1.956c2.932,2.107,4.541,6.058,3.981,9.604
			c-0.974,3.819-5.171,5.147-8.198,6.902C-69.652-238.846-71.872-243.688-73.88-248.624z"/>
		<path fill="#303A83" d="M246.969-238.714c2.312,1.326,5.056,2.429,6.377,4.913c2.588,4.994-1.104,12.06-6.735,12.655
			c-2.956,0.398-5.469-1.439-7.94-2.758C241.486-228.807,244.285-233.733,246.969-238.714z"/>
		<path fill="#303A83" d="M-66.216-231.581c3.39-1.3,7.139-3.635,10.807-1.956c3.637,1.807,5.67,6.194,5.429,10.124
			c-0.828,4.434-5.777,5.726-9.374,7.187C-61.559-221.394-63.991-226.433-66.216-231.581z"/>
		<path fill="#303A83" d="M-119.371-216.924c5.394,3.609,10.332,7.848,15.62,11.616c-3.481,2.763-7.291,5.084-11.1,7.374
			C-116.284-204.28-118.064-210.549-119.371-216.924z"/>
		<path fill="#303A83" d="M76.732-209.707c2.023,4.202,3.694,8.566,5.475,12.877c5.075-0.177,10.16-0.383,15.226-0.62
			c-3.718,3.134-8.017,5.556-11.593,8.848c1.382,4.344,3.547,8.397,5.039,12.702c-4.288-2.211-8.35-4.807-12.405-7.414
			c-4.021,2.735-7.805,5.788-11.872,8.45c1.131-4.444,2.478-8.824,3.784-13.209c-4.192-2.609-8.561-4.946-12.546-7.871
			c5.01-0.128,10.029-0.267,15.04-0.567C74.089-200.939,75.315-205.338,76.732-209.707z"/>
		<path fill="#303A83" d="M294.751-208.303c2.77,2.2,6.589,4.213,6.992,8.138c-0.196,3.666-2.961,7.031-6.316,8.374
			c-4.031,1.271-7.411-1.978-10.297-4.286C288.424-200.077,291.628-204.15,294.751-208.303z"/>
		<path fill="#303A83" d="M283.148-193.545c3.34,2.173,7.441,5.13,6.922,9.672c-0.677,3.857-3.567,7.639-7.452,8.571
			c-3.809,0.29-6.836-2.642-9.419-5.027C276.105-185.028,279.98-189.018,283.148-193.545z"/>
		<path fill="#303A83" d="M-57.936-176.076c3.823,2.562,6.876,6.232,10.892,8.453c4.435-2.062,8.436-4.973,12.886-7.043
			c-2.009,4.354-4.228,8.601-6.266,12.942c3.607,3.063,7.295,6.053,10.923,9.103c-4.995-0.295-9.995-0.602-14.989-0.919
			c-2.134,4.353-4.112,8.788-6.564,12.979c-0.953-4.389-1.479-8.869-2.719-13.174c-4.671-1.281-9.752-0.678-14.565-1.318
			c4.147-2.803,8.612-5.085,12.921-7.623C-56.358-167.124-57.362-171.559-57.936-176.076z"/>
		<path fill="#303A83" d="M217.113-174.293c-0.258,4.691-0.803,9.37-1.423,14.026c4.45,2.41,9.061,4.553,13.551,6.902
			c-4.722,0.827-9.495,1.167-14.202,2.049c-1.141,4.576-1.074,9.371-1.685,14.039c-2.659-4.224-5.065-8.601-7.588-12.917
			c-4.718,0.577-9.409,1.291-14.116,1.893c2.674-3.665,6.372-6.38,9.263-9.849c-1.897-4.517-4.964-8.427-7.002-12.876
			c4.489,2.132,8.894,4.424,13.329,6.67C210.589-167.614,213.883-170.918,217.113-174.293z"/>
		<path fill="#303A83" d="M353.592-92.807c10.132-5.669,20.211-11.439,30.366-17.069c2.357,3.993,4.986,8.417,4.123,13.27
			c-0.772,6.076-5.762,10.558-11.04,13.051c-4.661,2.19-10.336,3.562-15.189,1.207C357.633-84.39,355.782-88.965,353.592-92.807z"/>
		<path fill="#303A83" d="M-148.36-81.273c2.724-4.089,5.125-8.39,8.132-12.277c0.374,4.689,0.409,9.408,0.489,14.104
			c4.606,0.993,9.248,1.828,13.749,3.216c-4.566,1.941-9.167,3.822-13.582,6.113c0.292,4.823,0.424,9.64,0.408,14.472
			c-3.158-3.393-5.413-7.978-9.182-10.575c-4.475,1.522-8.617,3.857-13,5.602c2.411-4.376,5.267-8.495,7.946-12.71
			c-2.896-3.587-5.888-7.094-8.587-10.814C-157.426-83.295-152.896-82.285-148.36-81.273z"/>
		<path fill="#303A83" d="M297.592-88.176c3.552,3.481,5.443,8.637,9.363,11.617c4.339-1.094,8.497-2.773,12.851-3.805
			c-2.624,3.908-5.272,7.785-7.86,11.725c2.855,3.971,5.907,7.81,8.436,12.015c-4.476-1.235-8.684-3.27-13.118-4.55
			c-3.117,3.527-5.246,7.767-8.052,11.523c-0.358-4.946-0.504-9.897-0.701-14.842c-4.546-1.652-9.087-3.292-13.642-4.888
			c4.191-2.04,9.318-2.33,13.143-4.863C298.091-78.909,297.536-83.527,297.592-88.176z"/>
		<path fill="#303A83" d="M14.824-83.363C35.907-63.817,56.49-43.723,77.66-24.287c3.285-2.08,5.747-5.193,8.652-7.744
			c18.178-16.996,36.002-34.362,54.366-51.116c0.231,31.257,0.01,62.511,0.115,93.771c-7.371,7.03-14.499,14.296-22.097,21.059
			c-0.021-19.546,0.187-39.093-0.111-58.623c-13.728,12.68-27.163,25.668-40.815,38.436C64.104-1.297,50.664-14.322,36.881-27.002
			C36.74-7.4,36.926,12.195,36.785,31.797c-7.306-7.069-14.884-13.89-21.851-21.271C14.616-20.761,14.859-52.062,14.824-83.363z"/>
		<path fill="#303A83" d="M-83.142,14.408c31.315,0.128,62.64-0.167,93.94,0.128c7.421,6.915,14.268,14.493,21.255,21.848
			c-19.519,0.231-39.059-0.025-58.594,0.126c12.506,13.83,25.548,27.181,38.358,40.727c-12.567,13.83-25.75,27.085-38.347,40.889
			c19.489,0.435,38.998-0.035,58.493,0.232c-6.629,7.567-13.98,14.484-20.786,21.906c-31.366,0.111-62.741,0.102-94.112,0
			c19.54-21.1,39.433-41.907,59.275-62.727C-43.281,56.295-63.441,35.56-83.142,14.408z"/>
		<path fill="#303A83" d="M144.457,14.464c31.366-0.111,62.741,0.038,94.111-0.081c-19.534,21.208-39.583,41.962-59.365,62.943
			c19.691,21.062,39.771,41.753,59.315,62.954c-30.725,0.115-61.47,0.01-92.199,0.045c-2.069,0.317-3.265-1.694-4.606-2.863
			c-5.953-6.424-12.32-12.448-18.092-19.048c19.561-0.243,39.125-0.121,58.685-0.07c-12.708-13.704-25.594-27.266-38.545-40.766
			c12.573-13.98,25.826-27.311,38.596-41.105c-19.58-0.073-39.16,0.114-58.735-0.093C130.271,28.807,137.596,21.847,144.457,14.464z
			"/>
		<path fill="#303A83" d="M-196.753,26.783c2.633,4.094,4.838,8.453,7.27,12.68c4.662-1.445,9.53-2.319,13.979-4.389
			c-2.819,4.409-6.628,8.127-9.595,12.458c2.401,4.089,4.798,8.193,6.856,12.479c-4.309-1.642-8.456-3.656-12.765-5.307
			c-2.961,3.96-5.998,7.868-9.227,11.616c0.529-5.029,0.958-10.069,1.403-15.113c-4.217-1.874-8.496-3.598-12.654-5.586
			c4.485-1.435,9.051-2.551,13.551-3.933C-197.605,36.71-197.156,31.754-196.753,26.783z"/>
		<path fill="#303A83" d="M350.98,33.195c1.493,4.601,1.705,9.489,2.346,14.249c4.207,1.022,8.531,1.477,12.764,2.442
			c0.046,0.202,0.157,0.583,0.213,0.769c-3.668,2.384-7.922,3.784-11.357,6.511c0.439,5.001,1.479,9.937,2.033,14.933
			c-3.441-3.514-6.262-7.681-10.137-10.706c-4.111,1.921-7.899,4.424-11.986,6.375c1.807-4.61,4.203-8.962,6.055-13.557
			c-3.305-3.414-6.64-6.81-9.495-10.621c4.465,0.754,8.914,1.616,13.364,2.488C346.969,41.842,348.824,37.443,350.98,33.195z"/>
		<path fill="#303A83" d="M14.92,144.438c6.745-7.587,14.595-14.322,21.885-21.478c0.273,19.617-0.368,39.261,0.329,58.857
			c13.384-13.013,27.107-25.668,40.608-38.554c13.723,12.699,27.081,25.809,40.9,38.423c0.191-19.507,0.024-39.023,0.096-58.534
			c6.275,5.323,11.896,11.395,17.972,16.95c1.8,1.9,4.676,3.619,4.096,6.686c-0.096,30.381,0.105,60.772-0.11,91.159
			c-21.205-19.477-41.87-39.542-62.929-59.195c-21.028,19.724-41.768,39.744-62.953,59.291
			C14.859,206.846,14.637,175.637,14.92,144.438z"/>
		<path fill="#303A83" d="M-178.535,167.828c3.436-3.202,6.816-6.474,10.323-9.615c-0.802,4.855-1.771,9.681-2.775,14.495
			c4.012,2.829,8.224,5.345,12.199,8.233c-4.626,0.348-9.247,0.649-13.878,0.979c-0.944,4.779-1.771,9.574-2.786,14.349
			c-2.281-4.236-3.607-8.895-5.812-13.149c-4.365-1.059-9.248,0.56-13.813,0.388c3.184-3.422,6.72-6.483,10.1-9.705
			c-2.003-4.668-3.9-9.378-5.998-14.006C-186.759,162.338-182.693,165.15-178.535,167.828z"/>
		<path fill="#303A83" d="M319.862,165.302c3.626,2.804,7.224,5.637,10.786,8.506c4.021-2.688,7.703-5.854,11.704-8.576
			c-1.21,4.789-3.093,9.357-4.642,14.056c3.603,2.708,7.28,5.345,10.621,8.4c-4.582,0.327-9.178,0.348-13.769,0.403
			c-1.665,4.805-3.451,9.573-4.868,14.469c-1.529-4.684-2.716-9.453-3.86-14.228c-4.728,0-9.459,0.137-14.188,0.146
			c3.87-3.116,7.911-6.005,11.826-9.08C322.171,174.715,320.855,170.051,319.862,165.302z"/>
		<path fill="#303A83" d="M-109.457,276.634c1.771-4.397,3.087-8.945,4.949-13.29c1.478,4.714,2.795,9.488,4.354,14.178
			c4.671,0.388,9.358,0.79,14.01,1.37c-3.562,2.849-7.583,5.001-11.427,7.427c1.392,4.684,3.007,9.322,4.03,14.112
			c-3.985-2.944-7.325-6.847-11.659-9.257c-4.005,2.057-7.624,4.8-11.588,6.952c1.382-4.517,3.128-8.919,4.51-13.437
			c-3.955-3.101-7.814-6.313-11.614-9.589C-119.068,275.529-114.251,276.008-109.457,276.634z"/>
		<path fill="#303A83" d="M253.115,267.911c2.169,4.073,4.031,8.293,5.801,12.574c4.914-0.555,9.758-1.644,14.677-2.199
			c-3.295,3.731-7.851,6.454-10.6,10.568c1.523,4.204,3.799,8.077,5.357,12.281c-4.237-1.956-8.359-4.109-12.537-6.181
			c-3.642,3.338-7.123,6.866-10.982,9.973c0.888-4.664,2.028-9.276,3.092-13.905c-4.187-2.097-8.44-4.059-12.466-6.424
			c4.737-0.852,9.504-1.644,14.283-2.288C251.136,277.571,252.115,272.726,253.115,267.911z"/>
		<path fill="#303A83" d="M0.592,327.121c3.648,3.271,6.892,6.917,10.388,10.341c4.415-1.851,8.844-3.671,13.304-5.4
			c-1.912,4.023-4.521,7.664-6.579,11.616c2.411,4.169,6.877,6.963,9.763,10.911c-4.93-0.878-9.763-2.168-14.697-2.954
			c-2.2,4.053-4.531,8.025-7.018,11.903c-0.696-4.634-1.347-9.293-1.967-13.936c-4.919-1.15-9.858-2.133-14.782-3.223
			c4.358-2.036,8.869-3.761,13.39-5.399C1.863,336.348,1.055,331.76,0.592,327.121z"/>
		<path fill="#303A83" d="M136.965,338.888c3.765-2.975,6.146-7.35,9.737-10.547c-0.105,4.568-0.438,9.146-0.604,13.719
			c4.535,1.406,9.075,2.818,13.586,4.331c-4.521,2.032-9.425,2.864-14.116,4.325c-0.207,4.625-0.454,9.277-0.712,13.916
			c-2.921-3.771-5.595-7.72-8.496-11.496c-4.701,1.407-9.434,2.784-14.222,3.862c2.689-3.923,6.498-7.032,8.93-11.121
			c-2.396-3.862-5.438-7.296-7.789-11.188C127.905,335.894,132.31,337.799,136.965,338.888z"/>
		<path fill="#303A83" d="M50.437,340.708c2.83-3.927,10.923-2.636,11.053,2.748c-0.397,5.264-4.55,9.081-7.921,12.736
			c2.73,0.695,8.32-1.931,8.451,2.338c-3.95,0.046-7.886,0.061-11.836-0.039c2.245-5.511,9.253-9.258,7.84-16.049
			C56.915,339.12,52.929,340.966,50.437,340.708z"/>
		<g>
			<path fill="#303A83" d="M68.529,339.12c2.931-1.381,7.27-0.564,8.49,2.763c1.337,4.145,1.292,8.772,0.222,12.978
				c-1.075,4.497-7.86,5.44-10.423,1.831c-1.902-2.83-1.67-6.43-1.645-9.68C65.27,344.167,65.754,340.663,68.529,339.12z
				 M70.86,340.22c-4.091,2.879-2.074,9.322-2.214,13.702c-0.313,2.774,3.667,4.771,5.211,2.113
				c1.428-3.947,0.918-8.358,0.64-12.479C74.477,341.767,72.863,339.397,70.86,340.22z"/>
		</g>
		<path fill="#303A83" d="M80.299,342.877c1.105-3.142,4.772-3.142,7.392-4.135c-0.056,6.555-0.111,13.104,0.045,19.662
			c-0.837,0.056-2.513,0.187-3.35,0.257c0-5.702-0.035-11.395,0.025-17.091C83.043,342.024,81.666,342.458,80.299,342.877z"/>
		<g>
			<path fill="#303A83" d="M98.885,340.114c0.631-1.766,2.533-1.15,3.976-1.276c-0.051,3.861-0.368,7.749,0.126,11.602
				c0.651,0.286,1.958,0.836,2.614,1.125c-0.959,0.775-1.938,1.532-2.911,2.313c0.065,1.507,0.13,3.024,0.196,4.548
				c-0.817,0.056-2.487,0.15-3.33,0.211c-0.01-1.87-0.02-3.726-0.02-5.571c-2.599,0.01-5.187,0.01-7.77,0
				C93.042,348.229,96.347,344.313,98.885,340.114z M94.017,350.919c1.831,0,3.663,0.02,5.499,0.039
				c0.096-2.983,0.111-5.959,0.035-8.918C97.462,344.843,95.671,347.847,94.017,350.919z"/>
		</g>
	</g>
	<g>
		<path fill="#FEFEFE" d="M52.531-292.666c1.982-0.779,5.202-0.862,5.999,1.61c1.095,4.492-7.406,5.529-8.002,1.208
			C50.649-291.204,51.325-292.14,52.531-292.666z"/>
		<path fill="#FEFEFE" d="M39.394-291.675c1.937-0.721,5.292-0.603,5.756,1.921c0.807,4.379-7.527,5.241-7.976,0.965
			C37.097-290.183,38.152-291.231,39.394-291.675z"/>
		<path fill="#FEFEFE" d="M76.565-285.134c2.387,0.025,4.773,0.035,7.174,0.048c-0.222,6.111-0.257,12.234-0.212,18.341
			c5.015-5.752,9.5-11.94,14.389-17.794c1.523-0.749,3.375-0.235,5.046-0.418c-4.89,5.957-9.798,11.909-14.409,18.074
			c5.938,7.868,11.619,15.922,17.365,23.933c-2.82,0.023-5.626,0.011-8.436-0.035c-4.44-6.695-9.142-13.227-13.99-19.64
			c-0.182,6.497-0.232,13.005-0.156,19.502c-2.406-0.011-4.778-0.039-7.169-0.059C76.44-257.157,76.576-271.138,76.565-285.134z"/>
		<path fill="#FEFEFE" d="M60.785-284.375c0.817-0.02,2.456-0.083,3.269-0.113c0.575,9.536,1.594,19.045,2.19,28.582
			c0.448,5.147-2.089,10.685-6.897,12.931c-5.141,2.34-11.088,2.98-16.588,1.689c-5.438-1.442-9.208-6.764-9.515-12.284
			c-0.883-9.426-1.468-18.879-2.377-28.307c2.377-0.174,4.763-0.351,7.139-0.527c0.611,9.363,1.423,18.695,2.19,28.045
			c0.187,3.99,2.376,8.163,6.372,9.453c4.853,1.444,11.008,0.675,14.373-3.454c2.271-2.748,2.291-6.521,2.003-9.886
			C62.212-266.961,61.562-275.665,60.785-284.375z"/>
		<path fill="#FEFEFE" d="M20.944-281.009c0.787-0.081,2.401-0.257,3.204-0.335c-2.195,8.498-5.349,16.728-7.315,25.276
			c0.676,6.03,2.013,11.979,2.996,17.971c-2.305,0.428-4.616,0.872-6.911,1.338c-1.216-5.964-1.847-12.049-3.285-17.96
			c-4.334-7.439-10.666-13.686-14.722-21.282c2.125-1.177,4.738-0.975,7.073-1.501c4.027,5.843,8.138,11.641,12.533,17.217
			C16.716-267.177,18.683-274.132,20.944-281.009z"/>
		<path fill="#FEFEFE" d="M117.829-281.025c5.464-2.316,11.82-1.01,16.877,1.735c2.295,0.9,0.065,3.378-0.056,4.916
			c-3.451-2.132-7.109-5.178-11.463-4.258c-4.067,0.583-6.488,5.844-4.021,9.193c4.066,4.868,11.08,6.67,14.177,12.458
			c3.204,6.38-0.65,14.863-7.426,16.938c-6.498,1.911-13.431-0.346-18.753-4.192c0.676-1.568,1.393-3.153,2.073-4.729
			c3.249,3.46,7.659,6.728,12.719,5.649c4.864-0.754,7.457-7.3,4.264-11.094c-4.173-4.498-10.762-6.449-13.813-12.04
			C109.602-271.695,112.482-278.716,117.829-281.025z"/>
		<path fill="#FEFEFE" d="M-25.502-279.838c1.69-0.592,4.097-0.267,4.682,1.735c0.605,3.635-4.959,5.614-7.335,3.32
			C-29.81-276.946-27.692-279.356-25.502-279.838z"/>
		<path fill="#FEFEFE" d="M138.877-237.461c3.336-13.553,6.08-27.263,9.606-40.761c6.942,1.246,13.743,3.192,20.665,4.611
			c-0.162,0.807-0.464,2.423-0.616,3.227c-4.641-1.301-9.363-2.355-14.085-3.351c-1.182,5.168-2.412,10.336-3.558,15.518
			c4.793,1.117,9.586,2.226,14.394,3.26c-0.327,0.661-0.993,2.012-1.326,2.69c-4.672-0.749-9.188-2.165-13.849-2.959
			c-1.105,5.379-2.473,10.708-3.588,16.088c4.672,1.021,9.323,2.164,14.025,3.071c-0.136,0.827-0.434,2.488-0.579,3.32
			C152.904-234.121,145.921-235.969,138.877-237.461z"/>
		<path fill="#FEFEFE" d="M-39.648-275.174c2.008-1.291,5.802-1.291,6.099,1.71c-0.04,3.912-7.411,5.527-8.097,1.174
			C-41.44-273.595-40.773-274.562-39.648-275.174z"/>
		<path fill="#FEFEFE" d="M-17.379-272.631c0.777-0.241,2.331-0.732,3.107-0.975c2.73,9.158,5.837,18.206,8.612,27.358
			c1.56,4.843,0.439,10.687-3.602,14.002c-4.369,3.468-9.949,5.424-15.514,5.543c-5.837,0.058-10.897-4.425-12.497-9.872
			c-2.886-9.022-5.812-18.032-8.596-27.087c2.264-0.65,4.521-1.318,6.77-1.979c2.387,8.296,5.227,16.459,7.733,24.725
			c0.964,3.166,2.18,6.604,5.142,8.453c4.364,2.709,10.07,1.207,14.046-1.551c3.692-2.539,4.772-7.577,3.349-11.687
			C-11.532-254.709-14.539-263.651-17.379-272.631z"/>
		<path fill="#FEFEFE" d="M181.736-270.332c2.215,0.696,4.42,1.42,6.64,2.143c-1.861,6.03-4.395,11.815-6.352,17.819
			c5.832,1.97,11.493,4.473,17.421,6.172c2.043-5.836,4.263-11.606,6.387-17.419c2.215,0.861,4.42,1.724,6.634,2.621
			c-5.04,12.942-9.913,25.97-14.479,39.076c-2.316-0.696-4.602-1.489-6.862-2.281c2.482-6.251,4.764-12.587,7.059-18.906
			c-5.741-2.199-11.522-4.286-17.285-6.449c-2.467,6.29-4.596,12.701-7.163,18.955c-2.124-0.842-4.238-1.631-6.377-2.413
			C171.993-244.177,177.226-257.137,181.736-270.332z"/>
		<path fill="#FEFEFE" d="M226.193-260.255c2.241-2.932,8.684,0.315,6.968,3.852C231.208-252.557,223.58-256.62,226.193-260.255z"/>
		<g>
			<path fill="#FEFEFE" d="M-81.674-248.334c6.033-2.447,11.669-6.242,18.172-7.355c6.675-1.153,12.173,6.31,10.499,12.457
				c-0.631,2.292-2.503,3.868-4.102,5.473c2.785-0.115,5.837-0.559,8.345,1.011c6.276,3.842,7.27,14.043,1.08,18.45
				c-5.136,3.434-11.084,5.412-16.634,8.044C-69.969-223.009-75.741-235.717-81.674-248.334z M-73.88-248.624
				c2.008,4.936,4.233,9.778,6.609,14.55c3.027-1.755,7.234-3.083,8.198-6.902c0.56-3.552-1.049-7.497-3.981-9.604
				C-66.68-252.536-70.49-249.809-73.88-248.624z M-66.216-231.581c2.225,5.148,4.657,10.187,6.862,15.354
				c3.597-1.457,8.546-2.748,9.374-7.187c0.242-3.935-1.792-8.321-5.429-10.124C-59.072-235.215-62.82-232.881-66.216-231.581z"/>
		</g>
		<path fill="#FEFEFE" d="M223.611-253.769c2.179,0.955,4.358,1.898,6.553,2.838c-5.776,12.71-11.699,25.38-17.359,38.148
			c-2.154-0.91-4.319-1.828-6.482-2.713C211.961-228.313,218.075-240.905,223.611-253.769z"/>
		<g>
			<path fill="#FEFEFE" d="M242.252-244.853c5.322,3.153,11.428,5.379,15.735,9.962c4.536,4.842,2.997,13.469-2.749,16.66
				c-3.481,1.957-7.502,0.676-11.125-0.045c1.15,8.079,2.185,16.158,3.365,24.223c-2.513-1.271-4.995-2.634-7.427-4.054
				c-0.545-7.681-1.523-15.342-2.492-22.991c-3.728,4.984-6.347,10.735-9.298,16.208c-2.159-1.095-4.294-2.251-6.418-3.414
				C228.665-220.476,235.713-232.525,242.252-244.853z M246.969-238.714c-2.684,4.98-5.483,9.907-8.294,14.805
				c2.478,1.316,4.984,3.156,7.94,2.758c5.631-0.595,9.323-7.656,6.735-12.655C252.025-236.285,249.281-237.388,246.969-238.714z"/>
		</g>
		<path fill="#FEFEFE" d="M116.548-237.265c1.649,0.15,3.305,0.314,4.969,0.491c-2.557,3.179-3.677,8.997-8.616,8.987
			C113.884-231.034,115.221-234.142,116.548-237.265z"/>
		<g>
			<path fill="#FEFEFE" d="M-123.785-222.22c1.125-1.576,3.027-2.32,4.541-3.439c11.896,9.016,23.803,18.009,35.815,26.857
				c-2.2,1.361-4.384,2.745-6.574,4.119c-3.542-2.912-7.219-5.646-10.807-8.498c-4.465,2.783-8.889,5.637-13.223,8.626
				c1.13,4.445,2.104,8.941,3.4,13.351c-0.752,0.466-2.27,1.399-3.027,1.865C-116.864-193.664-120.617-207.894-123.785-222.22z
				 M-119.371-216.924c1.302,6.375,3.087,12.644,4.521,18.99c3.809-2.285,7.619-4.611,11.1-7.374
				C-109.033-209.081-113.978-213.314-119.371-216.924z"/>
		</g>
		<g>
			<path fill="#FEFEFE" d="M291.185-215.177c4.894,4.263,10.791,7.51,14.822,12.677c4.076,5.345,0.217,13.564-5.933,15.123
				c-2.302,0.558-4.562-0.36-6.756-0.907c1.281,2.445,2.937,4.98,2.669,7.868c-0.687,7.124-8.88,12.632-15.6,9.395
				c-5.58-2.912-10.06-7.487-15.12-11.178C274.027-193.092,282.623-204.121,291.185-215.177z M294.751-208.303
				c-3.123,4.146-6.327,8.22-9.621,12.226c2.891,2.308,6.266,5.557,10.297,4.286c3.35-1.338,6.12-4.703,6.316-8.374
				C301.34-204.083,297.521-206.097,294.751-208.303z M283.148-193.545c-3.168,4.527-7.043,8.517-9.954,13.209
				c2.583,2.388,5.61,5.319,9.419,5.029c3.885-0.933,6.78-4.714,7.452-8.571C290.589-188.416,286.488-191.372,283.148-193.545z"/>
		</g>
		<path fill="#FEFEFE" d="M-152.406-202.175c7.83,10.245,15.67,20.487,23.637,30.626c3.703-2.886,7.446-5.735,11.088-8.685
			c0.676,0.979,1.337,1.957,2.014,2.935c-5.601,4.154-11.084,8.475-16.599,12.746c-8.506-11.105-17.087-22.154-25.604-33.248
			C-156.039-199.24-154.213-200.708-152.406-202.175z"/>
		<path fill="#FEFEFE" d="M-182.682-190.78c0.918-0.778,1.846-1.547,2.774-2.327c2.114,4.283,1.993,9.789-1.811,13.086
			c-3.062,3.557-8.269,3.433-12.047,1.142c0.596-0.63,1.786-1.886,2.376-2.514c2.401,0.396,5.302,1.079,7.159-1.038
			C-181.608-184.48-182.238-187.939-182.682-190.78z"/>
		<path fill="#FEFEFE" d="M320.576-191.096c5.495,4.611,10.379,9.897,15.726,14.68c-0.735,0.814-1.452,1.616-2.163,2.43
			c-3.547-3.199-6.569-7.065-10.545-9.73c-3.667,3.665-7.512,7.247-10.67,11.373c3.229,3.552,6.877,6.681,10.403,9.908
			c-0.565,0.463-1.722,1.398-2.302,1.863c-3.783-2.793-6.563-6.743-10.433-9.425c-4.111,3.562-7.547,7.819-11.392,11.651
			c3.415,3.32,6.826,6.67,10.448,9.778c-0.767,0.872-1.544,1.744-2.301,2.617c-5.081-4.981-10.408-9.721-15.337-14.833
			C301.243-171.14,311.304-180.757,320.576-191.096z"/>
		<path fill="#FEFEFE" d="M-184.801-166.287c0.938-9.164,8.374-16.094,16.234-19.966c1.18,1.049,2.366,2.098,3.567,3.146
			c-4.415,1.932-9.349,3.666-12.078,7.924c-3.633,4.941-2.684,11.979,1.039,16.59c4.389,5.667,10.635,11.419,18.299,11.036
			c5.494-0.335,9.47-4.878,11.382-9.675c-4.465-4.398-8.985-8.729-13.587-12.99c1.62-1.666,3.23-3.34,4.829-5.026
			c4.864,4.945,10.181,9.473,14.953,14.508c-2.785,6.715-7.229,13.035-13.591,16.773c-5.902,3.439-13.536,2.446-19.066-1.281
			C-179.816-149.776-185.719-157.558-184.801-166.287z"/>
		<path fill="#FEFEFE" d="M312.945-140.794c10.619-9.069,21.194-18.192,32.041-26.976c1.401,1.848,2.836,3.69,4.232,5.556
			c-9.975,7.902-19.408,16.469-29.312,24.47c2.835,3.739,5.908,7.285,9.04,10.782c-0.615,0.592-1.852,1.789-2.472,2.384
			C321.94-129.952,317.131-135.135,312.945-140.794z"/>
		<path fill="#FEFEFE" d="M-201.843-152.818c0.701-0.853,1.387-1.714,2.083-2.559c7.401,6.085,15.1,11.801,22.541,17.845
			c4.244,3.305,6.524,9.247,4.576,14.422c-1.887,4.943-5.151,9.508-9.55,12.524c-4.601,3.087-10.984,2.493-15.292-0.827
			c-7.704-5.818-15.12-12.015-22.854-17.8c1.483-1.9,2.972-3.796,4.465-5.695c6.801,5.622,13.859,10.946,20.756,16.475
			c2.668,2.162,5.902,4.275,9.525,3.728c4.964-0.807,8.566-5.299,10.044-9.862c1.352-4.331-1.094-8.74-4.541-11.281
			C-187.329-141.527-194.493-147.288-201.843-152.818z"/>
		<path fill="#FEFEFE" d="M330.194-120.852c11.286-8.031,22.799-15.735,34.12-23.701c4.136,5.871,8.224,11.783,12.28,17.729
			c-0.687,0.418-2.044,1.27-2.726,1.704c-2.513-4.099-5.337-7.999-8.062-11.941c-4.399,3.015-8.784,6.05-13.153,9.09
			c2.563,3.98,5.484,7.708,8.002,11.714c-0.51,0.537-1.549,1.596-2.063,2.132c-2.759-4.063-5.524-8.114-8.376-12.118
			c-4.56,3.131-9.171,6.191-13.6,9.512c2.88,3.991,5.649,8.069,8.506,12.08c-0.782,0.29-2.342,0.882-3.123,1.177
			C337.831-109.079,333.543-114.738,330.194-120.852z"/>
		<g>
			<path fill="#FEFEFE" d="M346.952-97.23c12.36-6.562,24.344-13.794,36.663-20.439c3.87,7.905,10.494,15.41,9.455,24.798
				c-1.836,15.167-23.102,24.129-34.761,13.632C353.199-84.274,350.677-91.222,346.952-97.23z M353.592-92.807
				c2.19,3.842,4.041,8.417,8.26,10.463c4.854,2.355,10.528,0.979,15.189-1.207c5.278-2.488,10.263-6.976,11.04-13.051
				c0.863-4.852-1.766-9.276-4.123-13.27C373.803-104.246,363.724-98.476,353.592-92.807z"/>
		</g>
		<path fill="#FEFEFE" d="M-233.159-108.02c1.005-1.714,2.009-3.414,2.992-5.113c13.082,5.193,26.245,10.177,39.362,15.251
			c-1.095,2.04-2.201,4.074-3.285,6.124c-10.322-3.832-20.423-8.246-30.861-11.761c7.734,8.45,15.1,17.253,22.985,25.564
			c-0.852,1.561-1.7,3.119-2.538,4.694c-10.963-1.896-21.875-4.109-32.869-5.773c8.037,6.915,16.458,13.413,24.923,19.788
			c-0.616,1.001-1.231,2.014-1.847,3.026c-10.796-9.022-22.168-17.356-33-26.308c0.788-1.828,1.852-3.502,2.876-5.191
			c11.604,2.423,23.272,4.518,34.958,6.497C-217.151-90.339-225.202-99.142-233.159-108.02z"/>
		<path fill="#FEFEFE" d="M409.85-81.107c3.557-2.085,6.802,3.257,5.137,6.261C411.449-71.236,406.864-78.166,409.85-81.107z"/>
		<path fill="#FEFEFE" d="M366.826-60.885c12.769-5.7,25.472-11.548,38.136-17.469c0.969,2.129,1.932,4.283,2.9,6.425
			c-12.789,5.706-25.356,11.932-38.277,17.312C368.677-56.718,367.744-58.806,366.826-60.885z"/>
		<path fill="#FEFEFE" d="M393.242-47.776c5.982-6.197,11.266-13.063,17.233-19.268c0.954,2.458,1.901,4.914,2.785,7.394
			c-4.844,5.13-9.525,10.426-14.036,15.854c7.165,0.453,14.313,1.142,21.482,1.492c0.293,0.824,0.873,2.488,1.165,3.32
			c-8.758-0.428-17.511-1.644-26.27-1.644c-5.786,1.921-11.285,4.63-16.957,6.882c-0.862-2.224-1.76-4.425-2.648-6.613
			C381.734-42.821,387.838-44.658,393.242-47.776z"/>
		<path fill="#FEFEFE" d="M-228.356-35.521c1.837-1.419,4.844-0.444,5.384,1.848c1.069,3.073-2.125,7.134-5.424,5.494
			C-231.07-29.732-230.651-33.811-228.356-35.521z"/>
		<path fill="#FEFEFE" d="M-265.795-33.519c1.649,0.466,3.293,0.92,4.948,1.389c-3.123,3.167-6.503,6.635-6.725,11.364
			c-0.999,7.006,4.98,12.562,11.004,14.817c6.907,2.912,16.28,3.633,21.674-2.516c3.819-4.248,3.658-10.381,1.493-15.37
			c1.609,0.595,3.567,0.584,4.879,1.797c1.175,6.552-0.802,13.479-4.637,18.854c-3.718,5.147-10.428,7.374-16.588,6.604
			c-8.026-0.842-16.855-4.354-20.291-12.201C-273.52-17.002-270.618-26.476-265.795-33.519z"/>
		<path fill="#FEFEFE" d="M383.339-18.746c13.434-3.832,26.813-7.838,40.174-11.886c1.892,7.021,4.358,13.877,5.929,20.976
			c-0.769,0.094-2.281,0.27-3.044,0.363c-1.095-4.59-2.513-9.093-3.844-13.61c-5.11,1.404-10.182,2.954-15.267,4.454
			c0.983,4.729,3.406,9.315,3.672,14.075c-0.63,0.047-1.892,0.131-2.522,0.176c-1.522-4.368-2.602-8.886-3.945-13.31
			c-5.332,1.389-10.604,3.042-15.891,4.625c1.378,4.76,2.845,9.483,4.161,14.271c-0.816,0.034-2.445,0.118-3.264,0.148
			C387.062-5.091,385.393-11.983,383.339-18.746z"/>
		<path fill="#FEFEFE" d="M415.334,4.64c4.071-4.729,12.194-4.213,16.043,0.521c4.188,4.972,4.314,12.015,3.018,18.08
			c-1.513-0.177-3.018-0.351-4.506-0.512c1.318-3.819,2.911-8.321,0.657-12.105c-1.888-3.635-7.623-4.222-9.99-0.789
			c-3.299,5.321-2.931,12.385-7.361,17.087c-5.009,5.044-14.313,4.146-18.374-1.641c-3.965-5.566-3.914-12.99-1.806-19.251
			c1.639,0.127,3.299,0.251,4.949,0.398c-1.968,4.237-3.95,9.311-1.428,13.793c2.113,4.435,9.146,5.044,11.871,0.883
			C411.369,15.9,411.279,9.286,415.334,4.64z"/>
		<path fill="#FEFEFE" d="M-241.427,14.299c2.295-1.151,5.029,0.817,4.994,3.295c0.374,2.725-2.245,5.869-5.116,4.563
			C-244.707,20.811-244.343,15.724-241.427,14.299z"/>
		<path fill="#FEFEFE" d="M-279.427,17.851c1.236,0.056,2.482,0.114,3.718,0.187c-0.641,3.897-1.201,7.81-1.645,11.735
			c12.643,1.605,25.221,3.618,37.874,5.147c-0.308,2.365-0.606,4.729-0.908,7.089c-12.689-1.828-25.373-3.729-38.101-5.216
			c-0.444,3.821-0.974,7.625-1.413,11.447c-0.897-0.093-2.709-0.295-3.622-0.388C-282.202,37.841-280.688,27.862-279.427,17.851z"/>
		<path fill="#FEFEFE" d="M442.461,31.718c4.168-1.631,6.161,5.597,2.866,7.522C441.111,40.857,439.122,33.629,442.461,31.718z"/>
		<path fill="#FEFEFE" d="M395.562,38.434c13.921-1.744,27.804-3.793,41.72-5.656c0.171,2.291,0.771,4.621,0.474,6.927
			c-13.662,1.989-27.364,3.877-41.048,5.66C396.067,43.093,395.871,40.743,395.562,38.434z"/>
	</g>
	<g>
		<path fill="#409136" d="M-27.515-146.892c11.508-11.384,27.188-18.47,43.368-19.464c15.084-1.056,30.245,2.96,43.463,10.114
			c7.058,3.769,12.789,9.428,18.662,14.773c5.777-4.344,10.599-9.898,16.916-13.517c14.046-8.229,30.568-12.666,46.88-11.282
			c16.306,1.291,31.976,8.803,43.322,20.57c13.026,13.318,20.312,31.791,20.595,50.356c0.469,19.545-6.434,38.706-17.22,54.827
			c-8.032,12.274-18.601,22.577-29.181,32.63c-4.939,4.272-9.546,8.951-14.762,12.902c-0.035-10.197-0.035-20.409-0.056-30.616
			c-0.363-3.05,2.694-4.774,4.338-6.882c13.355-14.563,26.306-30.93,30.543-50.662c3.719-16.701-3.232-34.631-16.047-45.653
			c-15.484-13.305-39.842-15.463-57.106-4.344c-6.175,3.878-10.262,10.048-14.338,15.907c-5.323,7.868-10.196,16.134-13.526,25.06
			c-5.615-12.793-12.764-24.992-21.83-35.658c-13.617-14.096-36.637-15.763-53.715-7.333c-17.896,8.684-29.358,29.464-26.22,49.243
			c3.723,22.665,19.242,40.941,34.503,57.168c0.056,11.15,0.066,22.292-0.02,33.45C-6.659-11.287-25.27-27.234-36.919-48.421
			c-8.562-15.307-13.455-32.953-12.219-50.569C-48.033-116.858-40.374-134.355-27.515-146.892z"/>
		<path fill="#409136" d="M205.428-39.723c16.452-8.616,35.508-12.841,54.002-10.073c19.5,2.763,37.899,13.562,49.16,29.824
			c10.716,15.112,14.54,34.659,10.998,52.769c-2.668,13.404-8.097,26.613-17.425,36.784c-2.181,2.385-4.35,4.76-6.443,7.228
			c5.035,5.829,10.66,11.253,14.424,18.07c7.755,13.936,11.941,30.135,10.408,46.121c-1.549,17.269-10.069,33.71-23.162,45.059
			c-13.254,11.701-30.891,18.034-48.519,18.176c-18.768,0.241-37.167-6.191-52.798-16.355
			c-17.405-11.374-31.521-26.959-45.021-42.583c10.917-0.312,21.834-0.222,32.747-0.509c14.404,13.184,29.934,26.362,49.019,31.989
			c12.568,3.842,26.693,2.3,37.903-4.653c12.573-7.099,21.316-20.258,23.289-34.53c2.139-14.097-1.62-29.897-12.487-39.679
			c-10.498-8.731-22.425-15.609-34.815-21.229c11.261-4.59,21.703-10.946,31.4-18.238c17.37-12.354,20.549-37.802,11.75-56.217
			c-6.533-14.157-20.569-24.317-35.846-26.94c-11.648-1.874-23.499,1.281-33.867,6.521c-13.44,6.819-25.155,16.532-36.037,26.857
			c-1.181,0.918-2.297,2.41-3.985,2.199c-10.464,0.092-20.948,0.108-31.417,0.02C165.355-8.184,182.584-27.895,205.428-39.723z"/>
		<path fill="#409136" d="M-140.873-32.107c13.652-11.626,31.708-17.659,49.587-17.359c18.627,0.197,36.734,6.96,52.106,17.238
			C-21.889-20.622-7.935-4.884,5.687,10.669c-10.61,0.128-21.225,0.128-31.825,0.048c-1.594,0.164-2.608-1.291-3.739-2.133
			c-10.74-10.103-22.365-19.537-35.658-26.088c-10.464-5.12-22.446-8.069-34.075-5.844c-14.883,2.957-28.444,13.051-34.771,26.951
			c-6.523,14.071-6.327,31.43,1.61,44.909c2.775,4.808,6.836,8.715,11.331,11.912c9.414,6.947,19.504,13.07,30.381,17.419
			c-12.733,5.731-24.988,12.779-35.608,21.896c-14,13.627-15.645,36.521-7.244,53.553c8.737,17.964,29.68,29.454,49.568,26.187
			c22.481-3.796,40.618-19.158,56.763-34.263c1.201-1.583,3.249-1.402,5.015-1.423c9.792,0.041,19.59-0.01,29.388-0.02
			c-12.522,14.833-25.74,29.368-41.299,41.11c-14.884,10.94-32.501,18.715-51.042,20.217c-18.858,1.659-38.409-3.65-53.322-15.422
			c-13.404-10.437-22.818-25.95-25.508-42.744c-2.961-17.641,1.318-35.987,10.091-51.41c3.728-6.564,9.187-11.848,14.1-17.513
			c-4.752-5.715-10.256-10.882-13.964-17.401c-8.632-15.03-12.956-32.852-10.448-50.12C-162.32-6.001-153.617-21.436-140.873-32.107
			z"/>
		<path fill="#409136" d="M145.482,149.259c13.087,11.525,26.229,23.162,37.323,36.694c12.685,15.72,21.947,34.763,23.743,55.085
			c1.726,18.227-3.053,37.143-13.965,51.94c-10.151,13.996-25.7,23.988-42.737,27.114c-18.339,3.479-37.581-0.917-53.563-10.225
			c-6.393-3.66-11.347-9.187-17.119-13.679c-5.695,5.188-11.25,10.684-18.041,14.465c-14.071,7.785-30.427,11.954-46.536,10.255
			c-16.658-1.603-32.5-9.705-43.695-22.103c-12.8-13.98-19.495-33.084-19.036-51.95c0.323-19.824,8.063-38.932,19.509-54.904
			c11.16-15.468,25.523-28.244,39.76-40.772c-0.186,11.198,0.489,22.481-0.313,33.639c-13.107,14.495-26.341,30.068-31.724,49.278
			c-3.728,12.76-1.755,27.008,5.535,38.16c7.583,12.664,21.421,21.084,36.067,22.491c14.232,1.567,30.003-2.959,39.059-14.586
			c7.866-10.214,14.863-21.256,19.536-33.315c4.741,11.449,11.164,22.144,18.636,31.989c12.24,16.891,37.041,20.116,55.26,11.854
			c14.601-6.423,25.175-20.736,27.772-36.351c1.862-11.747-1.417-23.687-6.77-34.098c-6.882-13.396-16.614-25.077-26.972-35.912
			c-0.908-1.099-2.265-2.168-2.027-3.762C145.179,170.121,145.411,159.695,145.482,149.259z"/>
	</g>
	<g>
		<path fill="#F39314" d="M76.687,18.797c0.509-0.01,1.538-0.048,2.038-0.058c1.69,4.916,2.745,10.039,4.203,15.03
			c1.306,4.27-0.989,8.472-1.913,12.592c3.018,0.604,6.004,1.389,8.93,2.375c1.493-3.981,1.187-8.896,4.511-11.967
			c3.311-3.34,6.478-6.822,9.808-10.139c1.069-1.422,3.729-0.899,2.659,1.28c-1.211,5.436-2.447,10.894-4.057,16.225
			c-1.861,2.96-4.717,5.158-6.896,7.88c2.154,1.828,4.254,3.736,6.312,5.695c2.951-2.867,4.994-7.162,9.192-8.417
			c4.731-1.512,9.379-3.282,14.156-4.631c1.479-0.852,2.594,1.525,1.337,2.375c-3.581,4.167-7.164,8.369-10.947,12.365
			c-2.922,2.039-6.625,2.551-9.949,3.675c0.898,2.68,1.771,5.38,2.588,8.092c3.365-0.792,6.473-2.423,9.844-3.191
			c6.008,0.464,11.905,1.921,17.889,2.616c0.127,0.595,0.39,1.783,0.525,2.375c-5.827,2.004-11.412,4.705-17.325,6.418
			c-3.405-0.139-6.761-0.888-10.125-1.296c-0.248,2.874-0.605,5.718-0.943,8.571c4.136,0.676,8.955-0.061,12.37,2.863
			c4.066,3.202,8.471,5.979,12.325,9.448l-0.398,1.68c-5.979-0.046-11.937-1.094-17.87-1.831c-3.404-1.239-5.983-4.073-9.051-5.979
			c-1.595,2.405-3.259,4.765-4.97,7.079c2.946,2.117,6.549,3.61,8.784,6.554c2.432,4.685,4.692,9.469,6.916,14.253
			c0.989,1.023,0.076,3.435-1.447,2.446c-4.188-2.29-7.916-5.34-11.967-7.866c-4.238-2.278-5.061-7.391-7.492-11.151
			c-2.411,1.432-4.914,2.712-7.492,3.852c1.483,3.227,3.733,6.141,4.611,9.614c0.182,6.055-0.354,12.11-0.494,18.16
			c-0.59,0-1.796,0.025-2.392,0.025c-2.22-4.417-4.61-8.752-6.992-13.099c-2.563-3.892-1.085-8.757-1.247-13.119
			c-2.9,0.061-5.806,0.061-8.692,0c-0.141,4.206,1.13,8.88-1.271,12.656c-2.704,4.693-5.277,9.468-8.143,14.056
			c-1.227-0.888-1.807-2.047-1.771-3.459c-0.132-4.271-0.087-8.545-0.167-12.806c-0.545-4.725,3.228-8.228,4.854-12.342
			c-2.568-1.165-5.086-2.476-7.523-3.913c-2.24,3.832-3.344,8.793-7.577,10.991c-4.602,2.48-8.521,6.499-13.592,7.88
			c-0.983-1.805,0.63-3.458,1.201-5.066c2.246-4.069,4.026-8.39,6.498-12.332c2.478-2.436,5.707-3.938,8.527-5.935
			c-1.726-2.364-3.381-4.765-5.025-7.184c-2.805,2.021-5.373,4.537-8.632,5.828c-6.014,0.791-12.078,1.432-18.137,1.628
			l-0.479-1.698c3.961-3.53,8.561-6.243,12.779-9.444c3.436-2.717,8.132-1.805,12.189-2.364c-0.297-2.884-0.596-5.768-0.792-8.646
			c-3.39,0.355-6.775,1.068-10.181,1.079c-4.707-1.452-9.136-3.675-13.747-5.38c-1.282-0.723-4.485-1.27-3.063-3.398
			c4.737-1.267,9.692-1.454,14.515-2.291c4.697-1.261,8.899,1.762,13.072,3.375c1.049-2.7,2.134-5.38,3.249-8.051
			c-4.147-1.865-9.358-2.339-12.068-6.429c-2.972-4.182-7.315-7.477-9.334-12.236c1.771-1.232,3.718,0.243,5.51,0.65
			c4.273,1.714,8.793,2.867,12.951,4.864c2.553,2.284,4.511,5.137,6.862,7.625c2.053-2.011,4.177-3.932,6.372-5.77
			c-2.765-3.34-6.993-6.009-7.624-10.62c-0.954-5.138-2.599-10.129-3.052-15.334c2.694-1.258,4.085,2.433,5.893,3.821
			c3.092,4.129,8.329,7.089,9.237,12.499c0.495,2.153,0.898,4.321,1.316,6.496c2.836-0.688,5.676-1.349,8.532-1.943
			c-0.874-4.109-3.209-8.276-1.938-12.523C73.912,28.853,75.052,23.758,76.687,18.797z"/>
	</g>
</g>
</svg>
