<svg id="Icons" viewBox="0 0 512 512" xmlns="http://www.w3.org/2000/svg"><path d="m89.39 166.19c31.89 1.13 39.81-16.19 35.95-46.53-5.03-53.37-72.87-58.08-72.05.94-.38 21.52 13.99 45.61 36.1 45.59zm-3.23-76.49c25.46-.01 31.96 37.76 26.1 56.39-3.37 6.69-11.21 8.06-22.78 8.1-31.87-1.71-31.36-65.9-3.32-64.49z"/><path d="m469.89 213.71h-6.61v-5.63c8.97 1.27 10.69-11.32 1.67-12h-15.33c-9.01.67-7.31 13.26 1.66 12v5.63h-14.83v-31.84c0-19.97-11.48-33.38-28.56-33.38-13.81 0-28.54 1.83-28.54 23.74.14 7.89 11.86 7.88 12 0 0-7.56 2.16-9.03 2.97-9.58 2.82-1.91 8.73-2.16 13.57-2.16 15.37 0 16.56 16.36 16.56 21.38v31.84h-15.63v-5.63c8.96 1.26 10.67-11.32 1.66-12h-15.33c-9.01.68-7.3 13.27 1.67 12v5.63h-25.7c-3.14-5.33-13.51-6.43-15.02-6.16h-70.5c-1.53-.24-11.94.82-15.07 6.16h-19.99c-18.67-20.32-56.02-12.74-80.85-.38-19.31-14.59-35.22-31.7-59.02-40.69-19.87-6.68-42.79-3.37-52.43 13.53-3.22 8.96-1.46 18.16-1.56 27.54h-14.5c-11.7 0-21.43 8.78-22.63 20.43-1.18 53.45 32.58 103.07 64.87 141.65 37.51 38.59 44.93 36.64 74.13 36.63-1.52 3.11-1.92 6.59-1.21 9.86h-122.57c-7.7.08-8.04 11.85 0 12h427.55c7.71-.09 8.03-11.85 0-12h-45.18c.71-3.27.31-6.75-1.2-9.86 19.5.03 37.35-11.45 45.46-29.23 22.3-48.93 32.8-98.58 31.22-147.58-.41-12.29-10.4-21.91-22.74-21.91zm-189.6 9.73c-.02-.91.18-1.99.35-2.99.98-.48 3.17-.9 4.92-.9h70.56c1.73 0 3.92.42 4.9.9.18.99.36 2.02.34 2.99v75.12h-81.07zm-211.81-27.45c.14-3.98.39-5.81 3.75-8.41 32.66-21.45 65.56 17.43 90.18 35.29 3.38 3.38 9.55 3.62 13.34.81 13.2-7.4 48.33-16.63 62.97-4.63-24.82 7.21-46.66 15.51-72.69 27.62-4.59 2.52-7.28 2.35-11.6-.36-14.42-7.81-30.7-17.24-48.4-28.03-4.88-2.98-10.48-4.56-16.21-4.56h-21.14c-.29-7.47-.36-13.3-.21-17.72zm114.68 224.48c-.51 1.11-1.64 1.82-2.87 1.82h-8.1c-1.57 0-2.4-1.03-2.68-1.48-.28-.44-.87-1.62-.2-3.05l2.48-5.33h15.11zm12.39 1.82 4.59-9.86h174.21l4.59 9.86h-183.38zm206.75 0h-8.09c-1.24 0-2.38-.73-2.9-1.84l-3.73-8.02h15.13l2.47 5.32c.89 2.35-.39 4.36-2.89 4.54zm48.19-44.07c-6.16 13.49-19.69 22.21-34.48 22.21h-274.48c-48.73-7.58-114.72-117.14-110.04-165.06.57-5.51 5.16-9.66 10.69-9.66h47.65c3.52 0 6.96.97 9.96 2.8 17.88 10.9 34.34 20.44 48.93 28.34 2.89 1.58 6.98 3.76 11.64 3.73 4.2 0 7.81-1.68 10.73-3.03 25.95-12.07 47.6-20.26 72.39-27.38 1.34-.38 4.54-2.08 6.57-4.46h18.24v93.38c.13 7.88 11.87 7.89 12 0v-8.53h3.52c.31 5.3-1.96 14.12 6 14.53 7.96-.41 5.69-9.24 6-14.53h3.51c.31 5.3-1.96 14.12 6 14.53 7.96-.41 5.69-9.24 6-14.53h3.51c.31 5.3-1.96 14.12 6 14.53 7.96-.41 5.69-9.24 6-14.53h3.51c.31 5.3-1.96 14.12 6 14.53 7.96-.41 5.69-9.24 6-14.53h3.51c.31 5.3-1.96 14.12 6 14.53 7.96-.41 5.69-9.24 6-14.53h3.51c.32 5.31-1.99 14.1 6 14.53 3.31 0 6-2.69 6-6 0-8.01 0-83.33 0-93.38h96.53c5.83 0 10.55 4.53 10.74 10.3 1.52 47.13-8.62 94.97-30.14 142.21z"/><path d="m341.25 175.03c8.59 7.57 16.3-8.91 15.84-16.01-.02-14.84-10.52-15.16-10.8-24.64 0-2.02.6-4.97 3.44-7.55 5.78-5.28-2.24-14.14-8.07-8.88-9.87 8.48-9.62 24.76 0 33.19 2.15 1.96 3.43 4.9 3.43 7.88 0 2.02-.6 4.97-3.43 7.54-2.45 2.23-2.63 6.02-.41 8.48z"/><path d="m285.74 175.03c8.6 7.58 16.32-8.94 15.84-16.04-.02-14.79-10.52-15.13-10.82-24.6 0-2.02.6-4.97 3.45-7.56 5.78-5.28-2.24-14.14-8.07-8.88-9.88 8.49-9.64 24.76 0 33.2 2.15 1.95 3.43 4.88 3.43 7.86 0 2.02-.59 4.98-3.44 7.56-2.45 2.23-2.63 6.02-.41 8.48z"/><path d="m315.11 193.88c8.6 7.56 16.3-8.94 15.83-16.04-.03-14.83-10.52-15.17-10.81-24.62 0-2.02.6-4.97 3.44-7.56 5.79-5.28-2.23-14.14-8.06-8.89-4.76 4.32-7.38 10.16-7.38 16.45 0 6.39 2.7 12.5 7.37 16.73 4.19 4.32 5.13 10.38 0 15.45-2.45 2.23-2.63 6.03-.4 8.48z"/></svg>