<svg id="Capa_1" enable-background="new 0 0 512 512" height="512" viewBox="0 0 512 512" width="512" xmlns="http://www.w3.org/2000/svg"><g><g id="Page-1_37_"><g id="_x30_38---Double-Bed"><path id="Shape_80_" d="m492.006 273.732-48.273-96.546v-134.519c0-14.138-11.462-25.6-25.6-25.6h-324.266c-14.138 0-25.6 11.462-25.6 25.6v134.519l-48.273 96.546c-11.672 2.62-19.973 12.973-19.994 24.935v170.667c0 14.138 11.462 25.6 25.6 25.6h25.6c14.138 0 25.6-11.462 25.6-25.6v-25.6h358.4v25.6c0 14.138 11.462 25.6 25.6 25.6h25.6c14.138 0 25.6-11.462 25.6-25.6v-170.667c-.021-11.962-8.322-22.315-19.994-24.935zm-439.799-26.265h58.726c4.713 0 8.533-3.821 8.533-8.533 0-4.713-3.821-8.533-8.533-8.533h-50.193l21.333-42.667h21.538c3.879 15.025 17.404 25.542 32.922 25.6h93.867c9.84-.031 19.182-4.334 25.6-11.793 6.418 7.459 15.76 11.762 25.6 11.793h93.867c15.517-.058 29.042-10.575 32.922-25.6h21.538l21.333 42.666h-297.66c-4.713 0-8.533 3.821-8.533 8.533 0 4.713 3.82 8.533 8.533 8.533h306.193l12.8 25.6h-433.186zm195.26-68.267c0 9.426-7.641 17.067-17.067 17.067h-93.867c-9.426 0-17.067-7.641-17.067-17.067v-8.533c0-9.426 7.641-17.067 17.067-17.067h93.867c9.426 0 17.067 7.641 17.067 17.067zm17.066-8.533c0-9.426 7.641-17.067 17.067-17.067h93.867c9.426 0 17.067 7.641 17.067 17.067v8.533c0 9.426-7.641 17.067-17.067 17.067h-93.867c-9.426 0-17.067-7.641-17.067-17.067zm-179.2-128c0-4.713 3.821-8.533 8.533-8.533h324.267c4.713 0 8.533 3.821 8.533 8.533v128h-17.066c0-18.851-15.282-34.133-34.133-34.133h-93.867c-9.84.031-19.182 4.334-25.6 11.793-6.418-7.459-15.76-11.762-25.6-11.793h-93.867c-18.851 0-34.133 15.282-34.133 34.133h-17.067zm-68.266 256c0-4.713 3.821-8.533 8.533-8.533h460.8c4.713 0 8.533 3.82 8.533 8.533v128h-477.866zm42.666 170.666c0 4.713-3.821 8.533-8.533 8.533h-25.6c-4.713 0-8.533-3.821-8.533-8.533v-25.6h42.667v25.6zm435.2 0c0 4.713-3.82 8.533-8.533 8.533h-25.6c-4.713 0-8.533-3.821-8.533-8.533v-25.6h42.667v25.6z"/><g clip-rule="evenodd" fill-rule="evenodd"><path id="Path_124_" d="m42.667 315.733c-4.713 0-8.533 3.821-8.533 8.533v68.267c0 4.713 3.821 8.533 8.533 8.533s8.533-3.82 8.533-8.533v-68.267c0-4.712-3.821-8.533-8.533-8.533z"/><path id="Path_123_" d="m85.333 401.067c4.713 0 8.533-3.82 8.533-8.533v-68.267c0-4.713-3.821-8.533-8.533-8.533s-8.533 3.821-8.533 8.533v68.267c0 4.712 3.821 8.533 8.533 8.533z"/><path id="Path_122_" d="m128 401.067c4.713 0 8.533-3.82 8.533-8.533v-68.267c0-4.713-3.821-8.533-8.533-8.533-4.713 0-8.533 3.821-8.533 8.533v68.267c0 4.712 3.82 8.533 8.533 8.533z"/><path id="Path_121_" d="m170.667 401.067c4.713 0 8.533-3.82 8.533-8.533v-68.267c0-4.713-3.821-8.533-8.533-8.533-4.713 0-8.533 3.821-8.533 8.533v68.267c-.001 4.712 3.82 8.533 8.533 8.533z"/><path id="Path_120_" d="m213.333 401.067c4.713 0 8.533-3.82 8.533-8.533v-68.267c0-4.713-3.821-8.533-8.533-8.533s-8.533 3.821-8.533 8.533v68.267c0 4.712 3.821 8.533 8.533 8.533z"/><path id="Path_119_" d="m256 401.067c4.713 0 8.533-3.82 8.533-8.533v-68.267c0-4.713-3.821-8.533-8.533-8.533-4.713 0-8.533 3.821-8.533 8.533v68.267c0 4.712 3.82 8.533 8.533 8.533z"/><path id="Path_118_" d="m298.667 401.067c4.713 0 8.533-3.82 8.533-8.533v-68.267c0-4.713-3.82-8.533-8.533-8.533s-8.533 3.821-8.533 8.533v68.267c-.001 4.712 3.82 8.533 8.533 8.533z"/><path id="Path_117_" d="m341.333 401.067c4.713 0 8.533-3.82 8.533-8.533v-68.267c0-4.713-3.821-8.533-8.533-8.533s-8.533 3.821-8.533 8.533v68.267c0 4.712 3.821 8.533 8.533 8.533z"/><path id="Path_116_" d="m384 401.067c4.713 0 8.533-3.82 8.533-8.533v-68.267c0-4.713-3.82-8.533-8.533-8.533s-8.533 3.821-8.533 8.533v68.267c0 4.712 3.82 8.533 8.533 8.533z"/><path id="Path_115_" d="m426.667 401.067c4.713 0 8.533-3.82 8.533-8.533v-68.267c0-4.713-3.82-8.533-8.533-8.533s-8.533 3.821-8.533 8.533v68.267c-.001 4.712 3.82 8.533 8.533 8.533z"/><path id="Path_114_" d="m469.333 401.067c4.713 0 8.533-3.82 8.533-8.533v-68.267c0-4.713-3.821-8.533-8.533-8.533-4.713 0-8.533 3.821-8.533 8.533v68.267c0 4.712 3.821 8.533 8.533 8.533z"/></g></g></g></g></svg>