<?xml version="1.0"?>
<svg xmlns="http://www.w3.org/2000/svg" viewBox="0 0 512 512" width="512" height="512"><g id="Outline"><rect x="296" y="96" width="16" height="16"/><rect x="168" y="88" width="16" height="16"/><rect x="200" y="88" width="16" height="16"/><rect x="80" y="216" width="16" height="16"/><rect x="112" y="216" width="16" height="16"/><path d="M496,280V216a39.991,39.991,0,0,0-40-40h-8.836A56.041,56.041,0,0,0,408,160c-.722,0-1.442.022-2.161.05a36.284,36.284,0,0,0-8.466-37.991A18.223,18.223,0,0,1,392,109.088V72a56.35,56.35,0,0,0-11.2-33.6l-.026-.035A56.264,56.264,0,0,0,336,16H304a56.264,56.264,0,0,0-44.773,22.368l-.026.035A56.35,56.35,0,0,0,248,72V58.422A42.423,42.423,0,0,0,205.578,16H178.422A42.423,42.423,0,0,0,136,58.422V144c0,1.153.06,2.292.156,3.421A39.744,39.744,0,0,0,120,144H56a8,8,0,0,0-8,8v8a31.793,31.793,0,0,0,4.3,15.994A31.926,31.926,0,0,0,48,192v40a56.034,56.034,0,0,0,2.377,16.119Q49.2,248,48,248H40a24.027,24.027,0,0,0-24,24v16a7.956,7.956,0,0,0,1.4,4.515A47.827,47.827,0,0,0,16,304v72a40.045,40.045,0,0,0,40,40v72a8,8,0,0,0,8,8H480a8,8,0,0,0,7.845-9.569L473,412.213A39.956,39.956,0,0,0,496,376V320a47.817,47.817,0,0,0-12.485-32.258A40.252,40.252,0,0,0,488,288,8,8,0,0,0,496,280ZM408,176a40.011,40.011,0,0,1,40,40v3.012a49.818,49.818,0,0,1-16.411-21.543A8,8,0,0,0,417.6,195.2a69.134,69.134,0,0,1-28.736,22.149,81.872,81.872,0,0,1-8.448,3.067,87.516,87.516,0,0,1-10.378,2.482c-.636-1.263-1.31-2.5-2.037-3.71V216a39.7,39.7,0,0,1,11.717-28.283c.486-.486,1.017-.987,1.6-1.507A39.849,39.849,0,0,1,408,176ZM399.2,336A40.067,40.067,0,0,0,360,304h-.862a56.286,56.286,0,0,0,10.884-14.87,56.435,56.435,0,0,0,15.291,10.086c1.354.6,2.713,1.138,4.017,1.6A56.008,56.008,0,0,0,440,293.928V336ZM440,352v8H400v-8ZM336.792,96H328v16h13.911a34.055,34.055,0,0,0,17.626,14.09A40,40,0,0,1,280,120V87.474a59.374,59.374,0,0,0,44.631-30.907,19.113,19.113,0,0,1,14.217,21.682l-1.673,10.04A34.04,34.04,0,0,0,336.792,96ZM360,184c.663,0,1.322.037,1.979.091a55.291,55.291,0,0,0-8.491,19.052A55.973,55.973,0,0,0,264,248V208a24.027,24.027,0,0,1,24-24Zm-2.664,49.67A20.376,20.376,0,0,1,352,224.028,39.989,39.989,0,0,1,357.336,233.67ZM333.061,210.2c-10.832,13.193-32.43,19.057-49.353,21.009A39.953,39.953,0,0,1,333.061,210.2ZM280,264V248c0-.129.008-.255.01-.384a145.989,145.989,0,0,0,27.266-4.737q17.929-5.014,29.452-13.994c2.475,8.908,8.6,19.384,23.272,24.977V264a40,40,0,0,1-80,0Zm.862,40H280a39.759,39.759,0,0,0-16,3.35V264A55.82,55.82,0,0,0,280.862,304Zm156.944-29.332a40.06,40.06,0,0,1-43.159,11.053c-.93-.326-1.893-.709-2.85-1.133a40.309,40.309,0,0,1-13.622-9.942,38.881,38.881,0,0,1-2.669-3.329c.315-2.4.184-29.915-.378-33.092,2.714-.542,5.705-1.253,8.872-2.181V248h16V232h-4.71a86.8,86.8,0,0,0,26.9-17.81,61.649,61.649,0,0,0,21.873,21.25c1.285.715,2.6,1.369,3.941,1.98V248A39.89,39.89,0,0,1,437.806,274.668ZM381.667,128a34.758,34.758,0,0,0,4.392,5.373A20.284,20.284,0,0,1,371.716,168h-22.9a56.113,56.113,0,0,0,26.614-40ZM264,72a40.251,40.251,0,0,1,7.978-23.971L272,48a40.184,40.184,0,0,1,32-16H336a40.184,40.184,0,0,1,32,16l.021.029A40.245,40.245,0,0,1,376,72v37.088c0,.978.049,1.948.13,2.912h-5.316a18.1,18.1,0,0,1-17.857-21.08l1.673-10.04A35.108,35.108,0,0,0,320,40a8,8,0,0,0-7.156,4.423L311.156,47.8A43.539,43.539,0,0,1,272,72a8,8,0,0,0-8,8Zm-10.059,61.373A34.118,34.118,0,0,0,264,109.088V120a56.021,56.021,0,0,0,27.19,48H268.284a20.284,20.284,0,0,1-14.343-34.627Zm3.424,48.945c-.469.558-.927,1.126-1.365,1.71a40.249,40.249,0,0,0-2.8-3.325A35.853,35.853,0,0,0,257.365,182.318Zm-18.313-13.14q1.054,1.434,2.244,2.759-1.645-.794-3.373-1.433C238.308,170.07,238.686,169.629,239.052,169.178ZM248,208v27.19a55.926,55.926,0,0,0-88-10.328V184h64A24.027,24.027,0,0,1,248,208Zm-88,80v-8.03a50.155,50.155,0,0,0,40-21.12,50.155,50.155,0,0,0,40,21.12V288a40,40,0,0,1-80,0Zm3.159,42.122q-1.62.549-3.189,1.232-.006-2.229-.012-4.259Q161.5,328.672,163.159,330.122ZM160,263.986a40,40,0,0,1,80,0,34.2,34.2,0,0,1-32.239-25.926,8,8,0,0,0-15.522,0A34.2,34.2,0,0,1,160,263.986Zm88,52.824v3.218a39.914,39.914,0,0,0-6.214,12.145,39.854,39.854,0,0,0-4.944-2.052A56.426,56.426,0,0,0,248,316.81ZM163.766,36.438A26.339,26.339,0,0,1,178.422,32h27.156a26.439,26.439,0,0,1,24.737,17.122,25.137,25.137,0,0,0-16.955.754l-13.274,5.443a9.078,9.078,0,0,1-3.458.681H188.04a9.166,9.166,0,0,1-4.076-.962l-8.773-4.387A25.249,25.249,0,0,0,163.96,48h-2.846a25.015,25.015,0,0,0-7.429,1.122A26.37,26.37,0,0,1,163.766,36.438ZM152,73.114A9.124,9.124,0,0,1,161.114,64h2.846a9.166,9.166,0,0,1,4.076.962l8.773,4.387A25.249,25.249,0,0,0,188.04,72h8.588a25,25,0,0,0,9.526-1.876l13.275-5.443A9.114,9.114,0,0,1,232,73.114v27.573l-12.128,12.128a10.684,10.684,0,0,1-12.347,2A26.844,26.844,0,0,0,195.586,112h-7.172a26.851,26.851,0,0,0-11.94,2.818,10.683,10.683,0,0,1-12.346-2L152,100.687Zm0,50.2.815.815a26.656,26.656,0,0,0,30.815,5A10.764,10.764,0,0,1,188.414,128h7.172a10.761,10.761,0,0,1,4.784,1.129,26.661,26.661,0,0,0,30.815-5l.815-.815V144a24.027,24.027,0,0,1-24,24H176a24.027,24.027,0,0,1-24-24ZM120,160a24.027,24.027,0,0,1,24,24v8l-19.2-14.4A8,8,0,0,0,120,176H80a16.019,16.019,0,0,1-16-16Zm24.423,97.232A56.422,56.422,0,0,0,144,264v32a24.042,24.042,0,0,1-16,22.629V280A24.039,24.039,0,0,1,144.423,257.232ZM64,210.216l11.153-18.583A32.153,32.153,0,0,0,80,192h37.333L144,212v20a40.178,40.178,0,0,1-1.032,9.041,40.117,40.117,0,0,0-29.927,29.929,40.163,40.163,0,0,1-21.6-.984c-.067-.023-.134-.044-.2-.064A40.055,40.055,0,0,1,64,232ZM32,272a8.009,8.009,0,0,1,8-8h8a8.009,8.009,0,0,1,8,8v8H32Zm0,32a31.889,31.889,0,0,1,1.011-8H64a8,8,0,0,0,8-8V277.92a55.788,55.788,0,0,0,14.41,7.256c.074.025.149.048.225.071A55.833,55.833,0,0,0,104,288a56.464,56.464,0,0,0,8-.578V328a8,8,0,0,0,8,8,39.793,39.793,0,0,0,23.958-7.989c.016,5.5.029,11.079.037,16A39.88,39.88,0,0,0,138.8,353.3L118.7,360H80V328a8,8,0,0,0-8-8H32Zm89.442,176H72V448h55.842Zm9.6-48H72V416h62.242ZM136,400H56a24.027,24.027,0,0,1-24-24V336H64v32a8,8,0,0,0,8,8h48a8,8,0,0,0,2.53-.411L136,371.1Zm1.758,80,5.735-28.672.547,5.468A8,8,0,0,0,152,464h32a8,8,0,0,0,7.96-8.8l-8-80A8,8,0,0,0,176,368H152a23.945,23.945,0,0,1,5.976-15.851A26.134,26.134,0,0,1,160.125,350,23.966,23.966,0,0,1,176,344h48a23.974,23.974,0,0,1,15.885,6.006c.039.034.076.073.115.108V368H224a8,8,0,0,0-7.96,7.2l-8,80A8,8,0,0,0,216,464h43.042l3.2,16Zm15.082-96h15.92l6.4,64H159.24ZM240,384v64H224.84l6.4-64Zm32,64H256V376h16Zm80,32H328V440H312v40H288V424h64Zm0-72H288V344H272v16H256V344a24.027,24.027,0,0,1,24-24h80a24.027,24.027,0,0,1,24,24v16H368V344H352Zm32-32v72H368V376ZM368,480V464h24a8,8,0,0,0,8-8V416h56c.479,0,.955-.027,1.433-.044L470.242,480ZM480,376a23.977,23.977,0,0,1-24,24H400V376h48a8,8,0,0,0,8-8V289.012A32.058,32.058,0,0,1,480,320Zm0-105.371A24.041,24.041,0,0,1,464,248V216a55.939,55.939,0,0,0-5.339-23.85A23.986,23.986,0,0,1,480,216Z"/><rect x="416" y="232" width="16" height="16"/><rect x="296" y="256" width="16" height="16"/><rect x="328" y="256" width="16" height="16"/><rect x="176" y="280" width="16" height="16"/><rect x="208" y="280" width="16" height="16"/></g></svg>
