<svg id="Layer_1" enable-background="new 0 0 64 44" height="44" viewBox="0 0 64 44" width="64" xmlns="http://www.w3.org/2000/svg"><g id="Head_Board"><g><path d="m58 0h-52c-1.104 0-2 .895-2 2v20c0 1.104.896 2 2 2h52c1.104 0 2-.896 2-2v-20c0-1.105-.896-2-2-2z" fill="#666"/></g></g><g id="Pillows"><g><path clip-rule="evenodd" d="m28 12c-1 0-6 2-8 2h-2c-2 0-7-2-8-2s-2 1-2 2 2 4 2 6-2 5-2 6 1 2 2 2 6-2 8-2h2c2 0 7 2 8 2s2-1 2-2-2-4-2-6c0-1.951 2-5 2-6s-1-2-2-2zm28 2c0-1-1-2-2-2s-6 2-8 2h-2c-2 0-7-2-8-2s-2 1-2 2 2 4 2 6-2 5-2 6 1 2 2 2 6-2 8-2h2c2 0 7 2 8 2s2-1 2-2-2-4-2-6c0-1.951 2-5 2-6z" fill="#fff" fill-rule="evenodd"/></g></g><g id="Mattress"><g><path d="m60 20h-56c-1.104 0-2 .895-2 2v8c0 1.104.896 2 2 2h56c1.104 0 2-.896 2-2v-8c0-1.105-.896-2-2-2z" fill="#ccc"/></g></g><g id="Frame_2_"><g><path clip-rule="evenodd" d="m60 28h-56c-1.104 0-2 .896-2 2v8 4c0 1.104.896 2 2 2h4c1.104 0 2-.896 2-2v-2h44v2c0 1.104.896 2 2 2h4c1.104 0 2-.896 2-2v-4-8c0-1.104-.896-2-2-2z" fill="#4d4d4d" fill-rule="evenodd"/></g></g><g id="Frame_3_"><g><path d="m62 28h-60c-1.104 0-2 .896-2 2v4c0 1.104.896 2 2 2h60c1.104 0 2-.896 2-2v-4c0-1.104-.896-2-2-2z" fill="#666"/></g></g><g/><g/><g/><g/><g/><g/><g/><g/><g/><g/><g/><g/><g/><g/><g/></svg>