<svg enable-background="new 0 0 512 512" viewBox="0 0 512 512" xmlns="http://www.w3.org/2000/svg"><g id="_x32_0_Spa_Tub"><g><path d="m148.183 440.307-34.388 37.438c-2.948 4.396-8.481 6.257-13.496 4.499-4.809-1.655-7.808-6.154-7.808-10.963 0-1.293.206-2.586.672-3.827l27.096-32.888c8.687 3.518 18.151 5.535 27.924 5.741z" fill="#efe9e5"/><path d="m419.507 471.282c0 4.809-2.999 9.308-7.808 10.963-5.016 1.758-10.548-.103-13.496-4.499l-34.388-37.438c9.773-.207 19.237-2.223 27.924-5.74l27.096 32.888c.466 1.24.672 2.533.672 3.826z" fill="#efe9e5"/><path d="m479.802 248.1-42.299 136.671c-7.136 23.115-24.304 41.058-45.764 49.797-8.687 3.516-18.15 5.533-27.924 5.74-.569.052-1.189.052-1.758.052h-212.116c-.569 0-1.189 0-1.758-.052-9.773-.207-19.236-2.224-27.924-5.74-21.46-8.739-38.628-26.683-45.764-49.797l-42.298-136.671z" fill="#65cef8"/><path d="m479.789 248.078-42.288 136.685c-7.146 23.137-24.304 41.074-45.741 49.823-8.7 3.5-18.179 5.493-27.949 5.736-.583.049-1.167.049-1.749.049h-212.125c-.583 0-1.167 0-1.749-.049-9.77-.243-19.249-2.236-27.949-5.736-16.624-6.805-30.72-19.151-39.47-35.143 24.207 6.513 49.628 9.965 75.829 9.965 114.326 0 213.339-65.669 261.315-161.329h61.876z" fill="#fff" opacity=".4"/><path d="m479.802 248.11h8.946c5.688 0 10.29-4.602 10.29-10.29v-17.84c0-5.688-4.602-10.29-10.29-10.29-130.632 0-318.329 0-465.497 0-5.688 0-10.29 4.602-10.29 10.29v17.84c0 5.688 4.602 10.29 10.29 10.29h8.946z" fill="#efe9e5"/><path d="m499.038 219.982v17.839c0 5.687-4.617 10.305-10.305 10.305h-465.468c-5.687 0-10.305-4.618-10.305-10.305v-7.631c53.954 3.986 108.396 5.979 163.371 5.979 108.736 0 215.575-7.874 320.082-23.04 1.604 1.847 2.625 4.18 2.625 6.853z" fill="#fff" opacity=".4"/><path d="m188.031 209.685v84.446c0 4.55-3.689 8.239-8.239 8.239h-61.904c-4.55 0-8.239-3.689-8.239-8.239v-84.446z" fill="#fc575b"/><path d="m188.046 209.677v84.432c0 4.569-3.694 8.263-8.263 8.263h-61.878c-4.569 0-8.264-3.694-8.264-8.263v-28.047c4.375 1.313 8.992 2.041 13.756 2.041 26.491 0 47.976-21.485 47.976-47.976 0-3.597-.389-7.097-1.167-10.451h17.84z" fill="#fff" opacity=".4"/><path d="m109.65 276.967v17.164c0 4.55 3.689 8.239 8.239 8.239h61.904c4.55 0 8.239-3.689 8.239-8.239v-17.164z" fill="#efe9e5"/><path d="m488.748 203.612c-261.223 0-464.787 0-465.495 0-9.024 0-16.367 7.343-16.367 16.367v17.841c0 9.024 7.343 16.365 16.367 16.365h4.486l40.956 132.368c6.731 21.799 21.812 39.678 41.909 50.179l-22.129 26.86c-4.822 5.84-1.93 20.342 9.816 24.387 7.36 2.587 15.654.03 20.26-6.43l32.247-35.103h210.407l32.242 35.103c4.568 6.404 12.826 9.039 20.231 6.441 11.444-3.941 14.79-18.416 9.85-24.399l-22.129-26.861c20.085-10.489 35.177-28.371 41.909-50.174l16.529-53.419c.992-3.207-.802-6.61-4.011-7.602-3.209-.99-6.608.807-7.6 4.009l-16.529 53.423c-9.257 29.981-36.839 51.137-69.636 51.325h-212.125c-7.618.089-18.239-1.652-27.399-5.359-.034-.014-.071-.011-.106-.024-20.332-8.333-35.682-25.07-42.127-45.947l-39.844-128.777h63.114c0 2.71 0 41.196 0 39.945 0 7.894 6.422 14.314 14.317 14.314h61.904c7.889 0 14.312-6.42 14.312-14.314 0-4.317 0-40.547 0-39.945h277.433l-6.498 20.969c-.992 3.204.802 6.608 4.006 7.6 3.214 1.002 6.612-.8 7.604-4.006l7.608-24.563h4.487c9.024 0 16.367-7.341 16.367-16.365v-17.841c.001-9.023-7.343-16.367-16.366-16.367zm-379.43 270.022c-1.242 1.355-3.049 4.26-7.04 2.867-2.466-.851-4.084-3.367-3.636-6.142l23.549-28.581c2.846.979 9.583 2.771 13.267 3.401zm300.366 2.877c-3.767 1.332-5.735-1.489-7.006-2.877l-26.136-28.455c2.897-.497 9.822-2.214 13.267-3.401l23.544 28.578c.455 2.541-1.004 5.24-3.669 6.155zm-293.958-260.747h66.228v55.128h-66.228zm-96.689 22.056v-17.841c0-2.324 1.889-4.215 4.215-4.215h80.321v26.238c-8.256.003 29.751-.012-80.321.031-2.326 0-4.215-1.889-4.215-4.213zm162.917 56.31c0 1.191-.968 2.162-2.16 2.162h-61.904c-3.697 0-1.607-5.663-2.165-13.248h66.228v11.086zm311.009-56.31c0 2.324-1.889 4.213-4.215 4.213-370.198-.039-280.369-.029-294.642-.031v-26.238h294.642c2.326 0 4.215 1.892 4.215 4.215z"/><path d="m170.58 176.807c4.423 9.899 23.525-2.759 23.525-20.646 0-10.431-5.934-19.517-15.536-23.732-10.995-4.828-10.985-20.344.005-25.17 9.555-4.189 15.494-13.275 15.494-23.711 0-10.434-5.934-19.519-15.489-23.713-.033-.017-.071-.031-.109-.047-5.084-2.274-8.117-6.954-8.117-12.539 0-5.623 3.071-10.327 8.222-12.586 3.076-1.346 4.472-4.932 3.123-8.003-1.343-3.074-4.927-4.481-8.003-3.123-9.555 4.191-15.494 13.277-15.494 23.713 0 10.434 5.934 19.519 15.489 23.711.033.017.071.031.109.047 5.084 2.276 8.117 6.957 8.117 12.541 0 5.62-3.076 10.324-8.222 12.584-20.617 9.039-20.722 38.328.038 47.445 5.15 2.259 8.222 6.964 8.222 12.584 0 13.953-15.56 11.273-11.374 20.645z"/><path d="m258.727 107.128c5.391-2.229 10.114-5.94 12.479-11.272 5.484-12.365 2.269-24.732-6.308-31.993-3.02-2.556-7.705-1.239-9.292 2.385-1.046 2.387-.501 5.23 1.483 6.92 3.659 3.117 5.382 7.94 4.403 13.312-.818 4.491-4.232 7.936-8.38 9.841-20.153 9.255-20.241 38.168.609 47.314.75.309 1.528.453 2.288.453 2.364 0 4.6-1.4 5.582-3.714 1.296-3.062-.133-6.61-3.176-7.946-11.076-4.859-11.004-20.622.312-25.3z"/><path d="m333.255 168.82c-3.038 1.384-4.343 4.937-2.981 7.989 1.006 2.25 3.247 3.577 5.578 3.577.826 0 1.666-.166 2.468-.517 9.551-4.196 15.479-13.282 15.479-23.711 0-10.431-5.934-19.514-15.536-23.73-5.15-2.26-8.222-6.966-8.222-12.586.005-5.623 3.076-10.324 8.226-12.584 9.555-4.189 15.494-13.275 15.494-23.708 0-10.436-5.938-19.524-15.498-23.718-5.146-2.26-8.222-6.964-8.222-12.584 0-5.623 3.076-10.327 8.222-12.586 3.076-1.348 4.472-4.932 3.123-8.006-1.343-3.071-4.932-4.479-8.003-3.121-9.555 4.191-15.489 13.277-15.489 23.711 0 10.436 5.934 19.524 15.494 23.715 5.146 2.26 8.222 6.964 8.222 12.586 0 5.62-3.076 10.324-8.222 12.582-9.555 4.191-15.494 13.275-15.498 23.711 0 10.434 5.934 19.521 15.536 23.737 5.146 2.259 8.222 6.964 8.222 12.582-.001 5.619-3.072 10.323-8.393 12.661z"/></g></g><g id="Layer_1"/></svg>