<svg height="480pt" viewBox="0 -40 480 480" width="480pt" xmlns="http://www.w3.org/2000/svg"><path d="m88 280c-4.417969 0-8 3.582031-8 8v16c0 4.417969 3.582031 8 8 8h128c4.417969 0 8-3.582031 8-8v-16c0-4.417969-3.582031-8-8-8zm0 0" fill="#ff5023"/><path d="m16 40h32v320h-32zm0 0" fill="#00ccb3"/><path d="m8 360v32h48v-32zm0 0" fill="#603913"/><path d="m432 40h32v320h-32zm0 0" fill="#00ccb3"/><path d="m424 360v32h48v-32zm0 0" fill="#603913"/><path d="m208 232v48h-112v-48c0-26.507812 21.492188-48 48-48h16c26.46875.097656 47.902344 21.53125 48 48zm0 0" fill="#ffa733"/><path d="m264 280c-4.417969 0-8 3.582031-8 8v16c0 4.417969 3.582031 8 8 8h128c4.417969 0 8-3.582031 8-8v-16c0-4.417969-3.582031-8-8-8zm0 0" fill="#ff5023"/><path d="m464 8h-448c-4.417969 0-8 3.582031-8 8v16c0 4.417969 3.582031 8 8 8h448c4.417969 0 8-3.582031 8-8v-16c0-4.417969-3.582031-8-8-8zm0 0" fill="#ffa733"/><path d="m384 232v48h-112v-48c0-26.507812 21.492188-48 48-48h16c26.46875.097656 47.902344 21.53125 48 48zm0 0" fill="#ffa733"/><path d="m16 40h32v16h-32zm0 0" fill="#00b39d"/><path d="m432 40h32v16h-32zm0 0" fill="#00b39d"/><g fill="#ee8700"><path d="m96 8h16v32h-16zm0 0"/><path d="m208 8h16v32h-16zm0 0"/><path d="m272 8h16v32h-16zm0 0"/><path d="m384 8h16v32h-16zm0 0"/></g><path d="m208 232v48h-84.640625c26.128906-24.992188 49.492187-52.726562 69.679687-82.71875 9.558594 9.015625 14.96875 21.578125 14.960938 34.71875zm0 0" fill="#ff9811"/><path d="m384 232v48h-84.640625c26.128906-24.992188 49.492187-52.726562 69.679687-82.71875 9.558594 9.015625 14.96875 21.578125 14.960938 34.71875zm0 0" fill="#ff9811"/><path d="m480 32v-16c0-8.835938-7.164062-16-16-16h-448c-8.835938 0-16 7.164062-16 16v16c.015625 5.691406 3.066406 10.941406 8 13.777344v306.222656c-4.417969 0-8 3.582031-8 8v32c0 4.417969 3.582031 8 8 8h48c4.417969 0 8-3.582031 8-8v-32c0-4.417969-3.582031-8-8-8v-304h32v224c-8.835938 0-16 7.164062-16 16v16c0 8.835938 7.164062 16 16 16h128c8.835938 0 16-7.164062 16-16v-16c0-8.835938-7.164062-16-16-16v-224h48v224c-8.835938 0-16 7.164062-16 16v16c0 8.835938 7.164062 16 16 16h128c8.835938 0 16-7.164062 16-16v-16c0-8.835938-7.164062-16-16-16v-224h32v304c-4.417969 0-8 3.582031-8 8v32c0 4.417969 3.582031 8 8 8h48c4.417969 0 8-3.582031 8-8v-32c0-4.417969-3.582031-8-8-8v-306.222656c4.933594-2.835938 7.984375-8.085938 8-13.777344zm-104-16v16h-96v-16zm-176 0v16h-96v-16zm-152 368h-32v-16h32zm-8-32h-16v-304h16zm-24-320v-16h72v16zm200 272h-128v-16h128zm-112-32v-40c.027344-22.082031 17.917969-39.972656 40-40h16c22.082031.027344 39.972656 17.917969 40 40v40zm96-79.121094c-10.507812-10.792968-24.933594-16.882812-40-16.878906h-16c-15.066406-.003906-29.492188 6.085938-40 16.878906v-144.878906h96zm16-160.878906v-16h48v16zm176 272h-128v-16h128zm-112-32v-40c.027344-22.082031 17.917969-39.972656 40-40h16c22.082031.027344 39.972656 17.917969 40 40v40zm96-79.121094c-10.507812-10.792968-24.933594-16.882812-40-16.878906h-16c-15.066406-.003906-29.492188 6.085938-40 16.878906v-144.878906h96zm16-176.878906h72v16h-72zm72 368h-32v-16h32zm-24-32v-304h16v304zm0 0"/></svg>